<?xml version="1.0" standalone="no"?>
<!DOCTYPE svg PUBLIC "-//W3C//DTD SVG 20010904//EN"
 "http://www.w3.org/TR/2001/REC-SVG-20010904/DTD/svg10.dtd">
<svg version="1.0" xmlns="http://www.w3.org/2000/svg"
 width="500.000000pt" height="500.000000pt" viewBox="0 0 500.000000 500.000000"
 preserveAspectRatio="xMidYMid meet">
<metadata>
Created by potrace 1.11, written by Peter Selinger 2001-2013
</metadata>
<g transform="translate(0.000000,500.000000) scale(0.100000,-0.100000)"
fill="#000000" stroke="none">
<path d="M0 2500 l0 -2500 2500 0 2500 0 0 2500 0 2500 -2500 0 -2500 0 0
-2500z m2318 1236 c86 -34 217 -66 270 -66 l43 0 -6 -47 c-19 -137 -63 -215
-154 -270 -30 -18 -78 -38 -107 -44 -59 -13 -69 -29 -26 -46 25 -10 24 -11
-23 -12 -45 -1 -220 -38 -269 -57 -14 -6 -10 6 18 42 97 127 138 274 102 368
-18 47 -78 109 -124 128 l-27 12 40 6 c96 17 199 11 263 -14z m955 -11 c32 -9
82 -27 110 -40 l52 -23 -46 -1 c-55 -1 -116 -21 -178 -59 -38 -24 -52 -27 -81
-20 -19 4 -102 11 -185 14 l-150 7 -43 34 c-23 19 -40 38 -37 42 6 10 109 40
200 57 87 17 277 11 358 -11z m-1267 -20 c50 -21 111 -82 130 -130 28 -76 6
-150 -76 -254 -37 -46 -199 -185 -207 -177 -2 1 22 55 52 118 69 144 102 263
85 313 -28 84 -124 11 -177 -133 -24 -66 -28 -92 -28 -177 0 -87 3 -107 27
-157 l26 -57 -26 -5 c-183 -36 -348 7 -456 118 -123 126 -208 310 -164 354 23
23 76 12 159 -30 l83 -43 -63 -7 c-35 -4 -66 -10 -70 -13 -10 -11 57 -61 109
-83 l48 -20 7 26 c11 43 43 79 86 96 35 14 40 20 35 39 -4 12 -9 38 -12 57 -5
33 -2 37 48 74 140 102 278 135 384 91z m775 -137 c16 -30 2 -100 -32 -165
-16 -31 -28 -58 -26 -60 2 -2 45 -9 95 -16 l91 -12 -32 -37 -32 -36 -217 5
-218 6 43 27 c105 68 184 189 207 319 l13 70 49 -41 c27 -22 53 -49 59 -60z
m893 53 c177 -91 324 -220 404 -358 64 -109 65 -106 -20 -147 -156 -75 -330
-106 -623 -113 -234 -6 -399 4 -655 38 -185 25 -425 22 -525 -5 -94 -26 -180
-71 -235 -122 -50 -46 -100 -134 -100 -174 0 -20 4 -21 60 -15 33 3 88 8 123
11 58 5 178 27 221 40 36 12 6 -15 -58 -51 -89 -49 -215 -92 -387 -129 -18 -4
-37 -24 -62 -65 -35 -56 -252 -317 -340 -408 -22 -24 -37 -46 -33 -50 4 -4 33
-7 65 -6 62 2 144 26 248 73 35 16 63 25 63 20 0 -5 -14 -25 -31 -44 -39 -45
-134 -92 -224 -111 -149 -31 -435 -41 -435 -15 0 34 116 114 234 161 44 18 72
39 113 84 134 147 293 432 367 657 46 139 78 183 169 228 188 92 503 110 1092
64 303 -24 503 -6 622 54 105 54 118 140 38 245 -32 42 -128 129 -185 169 -48
33 -2 17 94 -31z m-204 5 c0 -3 -48 -51 -106 -108 -115 -112 -179 -198 -197
-266 -10 -36 -15 -42 -32 -38 -21 5 -189 26 -213 26 -18 0 52 85 146 177 77
76 179 149 247 178 55 23 155 43 155 31z m130 -76 l95 -55 -43 -3 c-45 -3
-153 27 -188 53 -18 13 -18 14 5 39 14 15 28 25 31 24 3 -2 48 -28 100 -58z
m-1683 -168 c-34 -78 -65 -142 -69 -142 -5 0 -8 40 -8 88 l0 88 68 56 c37 31
68 55 69 54 2 -1 -25 -66 -60 -144z m968 123 c39 -8 87 -15 108 -15 l39 0 -44
-49 -43 -48 -25 19 c-27 22 -71 18 -124 -9 -27 -14 -28 -14 -21 3 6 13 40 111
40 114 0 0 32 -7 70 -15z m614 -31 c2 -2 -2 -10 -9 -19 -7 -8 -10 -25 -7 -37
6 -23 5 -23 -87 -23 -106 0 -109 4 -41 64 34 29 40 31 88 25 29 -4 54 -8 56
-10z m-2383 -77 c34 -24 61 -55 94 -110 25 -42 65 -100 90 -129 28 -33 37 -49
25 -44 -71 27 -159 14 -236 -35 -25 -16 -57 -29 -71 -29 -18 0 -153 -35 -153
-40 0 0 -1 17 -2 37 -2 42 11 71 78 169 43 61 49 77 49 120 0 58 21 94 54 94
13 0 45 -15 72 -33z m2664 -54 c0 -88 -146 -132 -437 -133 -143 0 -143 0 -143
23 0 13 13 44 29 69 l30 47 188 -1 c200 -2 261 7 291 43 16 18 18 18 29 2 7
-9 13 -32 13 -50z m-2344 -299 c121 -61 194 -73 314 -53 89 15 90 15 84 -6
-11 -33 -61 -139 -75 -158 -11 -13 -169 -67 -199 -67 -3 0 -3 22 -2 48 3 40
-1 54 -22 80 -15 17 -48 39 -74 49 -92 35 -372 14 -455 -35 -36 -20 -54 -50
-62 -104 -4 -24 -19 -50 -46 -78 l-41 -42 -66 28 c-37 15 -71 33 -77 39 -5 6
-18 14 -27 18 -10 3 -18 10 -17 14 0 4 35 49 78 98 93 108 146 136 274 142 84
3 144 22 154 48 19 51 134 42 259 -21z m2734 -104 c24 -143 56 -272 93 -376
81 -227 41 -397 -111 -473 -39 -20 -249 -57 -260 -46 -2 2 4 14 13 28 21 32
79 72 131 90 l40 15 -4 -29 c-2 -16 -2 -29 2 -29 15 0 59 109 63 160 l6 57
-43 7 c-62 10 -100 51 -100 110 0 24 5 48 10 51 24 15 8 26 -29 20 l-39 -7 13
46 c23 75 38 203 30 261 -4 32 -16 69 -31 91 -28 41 -25 50 31 80 24 13 38 15
45 8 7 -7 12 -83 13 -197 2 -151 5 -186 15 -182 8 3 18 5 24 5 11 0 4 334 -8
396 -5 27 -2 33 28 51 41 25 40 28 68 -137z m-1542 8 c38 -11 39 -21 12 -126
-19 -77 -144 -452 -158 -477 -5 -10 -37 14 -115 86 -66 61 -112 97 -120 93 -7
-4 -40 -32 -75 -62 -75 -66 -87 -62 -87 32 0 82 11 94 141 157 74 35 111 60
138 90 63 74 57 77 -114 54 -58 -8 -132 -14 -165 -14 l-60 0 62 23 c34 13 83
37 110 54 144 93 309 127 431 90z m1217 -29 c92 -47 117 -119 90 -255 -9 -43
-26 -99 -38 -123 -18 -37 -29 -47 -61 -55 l-39 -11 138 -133 c75 -73 135 -135
133 -136 -1 -2 -34 3 -73 9 -148 27 -243 83 -285 170 -24 49 -49 58 -82 28
-17 -15 -18 -12 -18 83 0 110 -23 226 -64 317 l-24 56 32 34 c41 43 51 46 156
44 70 -2 95 -7 135 -28z m-555 2 c58 0 127 4 153 8 l48 8 -33 -34 c-43 -45
-159 -101 -250 -123 -69 -16 -73 -18 -81 -51 -5 -19 -11 -149 -13 -289 -5
-253 -5 -256 19 -300 16 -30 37 -51 67 -67 24 -13 39 -23 34 -23 -5 -1 -54 -7
-109 -14 -73 -10 -102 -10 -107 -2 -13 20 -8 104 8 146 14 35 15 53 4 140 -6
55 -10 176 -9 268 l2 167 -74 7 c-41 5 -77 9 -82 11 -4 1 21 21 56 44 35 23
76 59 90 80 l27 39 72 -7 c40 -4 120 -8 178 -8z m-310 -10 c-17 -34 -82 -81
-162 -119 l-78 -37 -11 -55 c-18 -89 -76 -246 -140 -379 l-59 -123 48 6 c133
19 184 51 198 122 6 32 9 34 45 34 38 0 38 0 33 -32 -19 -111 -62 -162 -146
-173 -29 -4 -117 -20 -194 -36 -161 -33 -192 -35 -200 -14 -10 25 21 60 81 91
32 15 70 44 86 63 66 80 138 269 195 510 18 79 35 145 37 147 2 3 26 0 53 -6
38 -9 67 -8 124 3 106 20 102 20 90 -2z m-1538 -32 c24 -13 45 -34 59 -61 l22
-42 -32 -27 c-74 -62 -254 -137 -278 -117 -19 16 -101 4 -155 -22 -51 -23 -82
-22 -125 6 -23 15 -32 63 -13 65 6 1 15 2 20 3 6 0 21 24 34 51 63 135 157
181 351 168 50 -3 93 -12 117 -24z m2049 -61 c43 -85 71 -182 76 -270 8 -119
-7 -155 -98 -243 l-70 -68 -24 51 c-31 68 -59 85 -132 80 l-57 -3 -9 40 c-11
50 -3 225 12 285 l12 46 70 18 c46 12 92 33 132 61 34 23 63 43 64 44 2 0 12
-18 24 -41z m-501 -138 c0 -52 -2 -60 -19 -60 -49 0 -83 45 -73 96 4 21 10 24
48 24 l44 0 0 -60z m-124 -29 l22 -41 -79 0 c-61 0 -78 3 -73 13 4 6 21 31 37
55 27 40 30 42 50 29 12 -8 31 -33 43 -56z m-843 -129 c-4 -45 -1 -69 15 -104
l20 -46 -26 -24 c-15 -13 -36 -31 -46 -39 -18 -13 -19 -13 -8 8 26 48 0 127
-50 154 -13 6 -24 13 -26 14 -1 1 3 16 9 33 9 26 19 34 52 42 36 9 57 16 64
19 0 1 -1 -25 -4 -57z m-138 -76 c39 -16 75 -68 75 -106 0 -39 -37 -90 -77
-107 -48 -20 -101 -5 -137 38 -49 58 -26 143 48 175 40 17 49 17 91 0z m1448
-156 c40 -45 38 -101 -7 -146 -28 -28 -42 -34 -76 -34 -34 0 -48 6 -76 34 -52
52 -44 127 18 167 47 29 104 20 141 -21z m-1562 -80 c28 0 -16 -20 -123 -55
-59 -19 -110 -35 -113 -35 -3 0 21 23 54 50 34 28 70 64 82 80 l22 29 32 -35
c18 -19 39 -34 46 -34z m1173 -88 c-5 -32 -2 -43 20 -69 15 -17 23 -34 19 -36
-5 -3 -55 -6 -113 -8 -114 -2 -117 -1 -79 52 29 42 107 90 157 99 1 0 -1 -17
-4 -38z m-2224 -527 c-7 -8 -21 -15 -32 -15 -17 0 -18 3 -8 15 7 8 21 15 32
15 17 0 18 -3 8 -15z m210 1 c0 -16 -44 -77 -127 -174 -29 -35 -53 -72 -53
-83 0 -17 7 -19 64 -19 48 0 65 4 70 15 4 12 -4 15 -39 15 -25 0 -45 4 -45 9
0 5 15 27 33 49 29 37 36 41 79 41 56 1 78 9 78 26 0 9 -15 15 -42 17 l-43 3
46 48 c28 28 55 47 68 47 21 0 21 -1 -6 -25 l-28 -24 58 -1 c31 0 57 -2 57 -5
0 -3 -34 -46 -76 -96 -41 -50 -73 -96 -71 -102 6 -19 121 -21 137 -2 11 13 7
15 -34 15 -26 0 -46 5 -46 11 0 5 14 28 32 50 29 36 35 39 83 39 46 0 75 12
75 31 0 5 -20 9 -45 11 l-45 3 46 48 c33 33 54 47 73 46 15 0 20 -3 11 -6 -8
-3 -23 -13 -34 -22 -17 -15 -15 -16 44 -21 l62 -5 -91 -107 -91 -108 73 0 c50
0 82 5 104 18 35 19 223 238 223 259 0 7 7 13 15 13 17 0 20 -23 5 -51 -10
-18 -7 -19 40 -19 27 0 50 -3 50 -7 0 -5 -33 -47 -73 -94 -39 -47 -78 -93 -86
-102 -12 -15 -11 -17 10 -16 17 0 40 20 77 65 l53 64 53 0 c35 0 58 5 66 15
11 13 6 15 -34 15 -25 0 -46 4 -46 9 0 4 19 29 43 55 41 43 47 46 95 46 28 0
54 5 57 10 9 15 47 12 43 -2 -3 -8 -29 -15 -65 -18 -33 -3 -68 -12 -78 -20
-17 -14 -14 -15 39 -20 l57 -5 -91 -107 c-80 -95 -88 -108 -67 -108 17 0 38
18 76 65 51 63 55 65 98 65 l45 0 -42 -50 c-23 -27 -46 -52 -51 -56 -15 -9
-10 -24 9 -24 20 0 231 241 240 273 2 9 11 17 18 17 16 0 19 -36 4 -45 -5 -3
-10 -13 -10 -21 0 -8 -34 -55 -76 -105 -41 -50 -73 -96 -71 -102 6 -19 121
-21 137 -2 11 13 7 15 -34 15 -27 0 -46 5 -46 11 0 11 152 193 180 216 8 7 26
12 40 12 23 0 23 -1 5 -9 -12 -4 -27 -15 -34 -24 -12 -14 -6 -16 68 -16 44 0
81 -2 81 -5 0 -3 -38 -50 -85 -106 -47 -55 -85 -102 -85 -104 0 -3 9 -5 20 -5
12 0 58 46 132 135 112 133 113 134 156 135 23 0 42 5 42 10 0 6 10 10 21 10
18 0 19 -2 9 -15 -7 -9 -29 -15 -51 -15 -28 0 -41 -5 -49 -20 -9 -18 -8 -20
15 -20 14 0 25 -3 25 -7 0 -5 -32 -46 -70 -91 -39 -46 -70 -93 -70 -103 0 -16
8 -19 55 -19 31 0 69 7 85 15 31 16 205 213 223 252 5 13 16 23 24 23 18 0 17
-35 -2 -50 -8 -7 -12 -16 -9 -21 3 -5 -34 -55 -81 -111 -67 -81 -82 -104 -69
-107 12 -2 39 20 79 63 54 60 95 87 82 54 -3 -7 -14 -37 -26 -66 l-21 -53 26
3 c23 3 31 12 49 62 19 51 28 62 63 78 43 21 122 106 122 133 0 18 31 17 37
-1 2 -6 -15 -34 -38 -63 -23 -28 -39 -58 -36 -66 4 -8 23 -15 48 -17 l41 -3
-42 -47 c-41 -48 -42 -48 -105 -48 -43 0 -66 -5 -75 -15 -11 -13 -3 -15 60
-15 49 0 81 5 100 17 16 9 77 74 136 145 66 78 116 128 127 128 16 0 15 -4 -8
-34 l-27 -35 57 -3 57 -3 -91 -107 -91 -108 73 0 c50 0 82 5 105 18 34 18 222
238 222 259 0 7 7 13 15 13 17 0 21 -35 5 -45 -5 -3 -10 -13 -10 -22 0 -8 -34
-56 -75 -105 -42 -50 -74 -96 -72 -102 2 -6 32 -12 69 -14 52 -2 67 0 71 13 5
12 -2 15 -38 15 -25 0 -45 5 -45 11 0 6 15 28 33 49 29 36 36 40 83 40 46 0
74 12 74 32 0 4 -18 8 -40 8 -22 0 -40 4 -40 8 0 4 19 27 43 50 28 27 51 42
67 41 25 0 25 0 3 -11 -44 -21 -36 -38 17 -38 28 0 50 -2 50 -5 0 -3 -10 -19
-21 -35 -28 -37 -19 -58 26 -62 l36 -3 -36 -42 c-35 -41 -39 -43 -95 -43 -41
0 -61 -5 -71 -16 -12 -15 -7 -16 61 -13 83 5 100 14 163 86 48 58 49 83 2 83
-19 0 -35 5 -35 11 0 21 77 89 100 89 22 0 21 -1 -6 -22 l-29 -23 74 -5 74 -5
-78 -92 c-43 -51 -86 -93 -95 -93 -10 0 -23 -7 -30 -15 -11 -13 -5 -15 48 -15
59 0 88 14 62 30 -16 10 168 229 193 229 14 1 16 -3 7 -18 -7 -14 -6 -21 2
-23 7 -3 -20 -43 -65 -97 -43 -51 -76 -98 -74 -104 6 -21 108 -20 142 1 37 23
137 137 128 146 -13 12 -71 6 -84 -10 -10 -13 -10 -17 1 -24 21 -13 -69 -100
-104 -100 -14 0 -26 5 -26 11 0 11 152 193 180 216 8 7 26 12 40 12 l25 0 -27
-15 c-44 -23 -33 -33 39 -36 l66 -3 -92 -107 c-79 -93 -88 -108 -68 -108 17 0
45 27 109 103 122 144 134 157 160 157 l22 0 -24 -17 -24 -17 23 -6 c23 -5 19
-11 -62 -107 -48 -56 -87 -104 -87 -107 0 -3 8 -6 18 -6 20 0 231 241 240 273
6 22 32 22 32 -1 0 -9 -16 -41 -36 -70 -19 -30 -33 -60 -30 -67 3 -8 21 -15
41 -17 l36 -3 -36 -42 c-35 -41 -39 -43 -95 -43 -39 0 -62 -5 -70 -15 -11 -13
-4 -15 51 -15 42 0 75 6 96 18 38 20 125 120 120 136 -2 6 -20 12 -40 14 -20
2 -37 7 -37 12 0 19 78 90 99 90 21 0 21 -1 -6 -25 l-28 -24 178 -1 c98 0 177
-4 175 -9 -1 -4 -46 -67 -98 -139 l-95 -132 -2364 0 c-1889 0 -2361 3 -2354
13 6 6 52 69 102 140 l92 127 110 0 c60 0 109 -4 109 -8 0 -5 -9 -17 -20 -27
-31 -28 -22 -59 18 -63 17 -2 32 -6 32 -10 -1 -4 -14 -23 -31 -42 -27 -32 -35
-35 -96 -40 -89 -7 -100 -30 -13 -30 76 0 105 15 164 82 59 68 60 86 4 90
l-43 3 46 48 c26 26 55 47 65 47 15 0 15 -3 -6 -22 l-25 -23 58 -3 c31 -2 57
-6 57 -10 -1 -4 -39 -52 -86 -107 -67 -79 -81 -101 -67 -104 12 -2 38 19 78
63 56 62 63 66 103 66 23 0 57 6 75 14 38 15 117 102 117 129 0 10 8 17 20 17
11 0 20 -6 20 -14z m210 -1 c-7 -8 -21 -15 -32 -15 -17 0 -18 3 -8 15 7 8 21
15 32 15 17 0 18 -3 8 -15z m210 0 c-7 -8 -21 -15 -32 -15 -17 0 -18 3 -8 15
7 8 21 15 32 15 17 0 18 -3 8 -15z m964 0 c-4 -8 -13 -15 -21 -15 -13 0 -13 3
-3 15 7 8 16 15 21 15 5 0 6 -7 3 -15z m766 8 c0 -4 -12 -20 -27 -35 -21 -22
-23 -28 -10 -28 23 0 21 -9 -5 -37 -22 -24 -78 -32 -78 -12 0 18 90 119 106
119 8 0 14 -3 14 -7z m670 -8 c-7 -8 -21 -15 -32 -15 -17 0 -18 3 -8 15 7 8
21 15 32 15 17 0 18 -3 8 -15z m210 0 c-7 -8 -21 -15 -32 -15 -17 0 -18 3 -8
15 7 8 21 15 32 15 17 0 18 -3 8 -15z m160 0 c-7 -8 -21 -15 -32 -15 -17 0
-18 3 -8 15 7 8 21 15 32 15 17 0 18 -3 8 -15z m190 0 c-7 -8 -21 -15 -32 -15
-17 0 -18 3 -8 15 7 8 21 15 32 15 17 0 18 -3 8 -15z m460 0 c-7 -8 -21 -15
-32 -15 -17 0 -18 3 -8 15 7 8 21 15 32 15 17 0 18 -3 8 -15z m-2805 -30 c-29
-24 -29 -24 -7 -25 l23 0 -21 -30 c-18 -25 -28 -30 -61 -30 -21 0 -39 3 -39 6
0 13 67 87 85 95 40 16 50 9 20 -16z m-1179 -4 c-17 -19 -17 -20 4 -23 22 -3
22 -3 -3 -30 -21 -22 -35 -28 -68 -28 l-42 0 19 23 c50 60 69 77 87 77 19 0
19 -1 3 -19z m629 -1 c-18 -19 -17 -20 3 -20 12 0 22 -2 22 -5 0 -3 -34 -46
-76 -95 -75 -88 -78 -90 -121 -90 l-44 0 98 115 c63 75 104 115 116 115 19 0
20 -1 2 -20z m1193 9 c-22 -12 -23 -29 -3 -29 8 0 15 -3 15 -6 0 -3 -34 -46
-76 -95 -72 -84 -79 -89 -115 -89 -22 0 -39 2 -39 5 0 6 171 208 184 217 6 4
20 8 31 8 18 -1 19 -1 3 -11z m227 -9 c-18 -19 -17 -20 6 -20 23 0 23 0 -7
-31 -25 -25 -38 -30 -67 -27 l-37 3 41 48 c24 28 49 47 61 47 20 0 21 -1 3
-20z m540 0 c-18 -19 -17 -20 3 -20 12 0 22 -2 22 -5 0 -3 -34 -46 -76 -95
-75 -88 -78 -90 -121 -90 l-44 0 98 115 c63 75 104 115 116 115 19 0 20 -1 2
-20z"/>
<path d="M2497 3589 c-11 -6 -32 -9 -48 -7 -22 4 -29 1 -29 -12 0 -10 -11 -34
-25 -55 -25 -35 -25 -38 -8 -51 47 -36 85 -19 123 56 38 76 34 96 -13 69z"/>
<path d="M3900 3299 c0 -19 -9 -52 -20 -74 -11 -21 -19 -40 -17 -41 7 -7 129
42 148 59 l22 20 -23 19 c-12 10 -34 18 -48 18 -14 0 -34 7 -44 17 -17 15 -18
14 -18 -18z"/>
<path d="M2541 2821 c-31 -13 -49 -28 -62 -53 -10 -19 -42 -57 -70 -82 -42
-38 -50 -49 -38 -57 21 -13 93 -11 111 4 18 15 122 207 111 206 -4 0 -28 -8
-52 -18z"/>
<path d="M3778 2809 c-23 -17 -26 -24 -18 -45 6 -14 10 -51 10 -82 l1 -57 16
27 c9 14 34 36 56 48 38 22 39 24 33 63 -4 23 -12 47 -18 54 -15 19 -49 15
-80 -8z"/>
<path d="M3390 2680 c-35 -28 -69 -58 -74 -67 -9 -16 -2 -114 9 -133 4 -6 19
6 35 28 41 57 79 84 108 77 24 -6 24 -5 17 42 -4 26 -12 60 -18 75 l-12 28
-65 -50z"/>
</g>
</svg>
