<?xml version="1.0" encoding="utf-8"?>
<!-- Generator: Adobe Illustrator 22.0.1, SVG Export Plug-In . SVG Version: 6.00 Build 0)  -->
<svg version="1.1" xmlns="http://www.w3.org/2000/svg" xmlns:xlink="http://www.w3.org/1999/xlink" x="0px" y="0px"
	 viewBox="0 0 272 138.4" style="enable-background:new 0 0 272 138.4;" xml:space="preserve">
<style type="text/css">
	.st0{fill:#FFFFFF;}
</style>
<g id="Layer_4">
</g>
<g id="Layer_3">
</g>
<g id="Layer_2">
	<g>
		<g>
			<polygon class="st0" points="260.6,138.6 0.3,138.6 11.4,123.2 271.8,123.2 			"/>
			<g>
				<path class="st0" d="M27.2,132.4c-1.3,1.6-3.7,2.9-5.3,2.9h-6.1l1.4-1.6h5.3c0.7,0,1.7-0.5,2.2-1.2l2.4-2.8
					c0.6-0.7,0.5-1.2-0.2-1.2h-2.4c-1.6,0-1.8-1.3-0.4-2.9l3.1-3.7c1.2-1.4,3.7-2.9,5.3-2.9h6.1l-1.4,1.6h-5.3
					c-0.7,0-1.7,0.6-2.2,1.2l-2.4,2.9c-0.6,0.7-0.5,1.2,0.2,1.2h2.4c1.6,0,1.8,1.2,0.5,2.8L27.2,132.4z"/>
				<path class="st0" d="M46,125.1c-1.3,1.6-3.7,2.9-5.3,2.9h-4.5l-6.2,7.3h-2.4L41.3,119h6.9c1.6,0,1.8,1.3,0.4,2.9L46,125.1z
					 M46.3,121.9c0.6-0.7,0.5-1.2-0.2-1.2h-3.7l-4.8,5.7h3.7c0.7,0,1.7-0.5,2.2-1.2L46.3,121.9z"/>
				<path class="st0" d="M48.4,135.3h-5.7c-1.6,0-1.8-1.3-0.4-2.9l8.9-10.6c1.3-1.6,3.7-2.9,5.2-2.9h5.7l-1.4,1.6h-4.9
					c-0.7,0-1.7,0.6-2.2,1.2l-3.8,4.5h5.7l-1.4,1.6h-5.7l-3.8,4.5c-0.6,0.7-0.5,1.2,0.2,1.2h4.9L48.4,135.3z"/>
				<path class="st0" d="M59.7,135.3H54c-1.6,0-1.8-1.3-0.4-2.9l8.9-10.6c1.3-1.6,3.7-2.9,5.2-2.9h5.7l-1.4,1.6h-4.9
					c-0.7,0-1.7,0.6-2.2,1.2l-3.8,4.5h5.7l-1.4,1.6h-5.7l-3.8,4.5c-0.6,0.7-0.5,1.2,0.2,1.2h4.9L59.7,135.3z"/>
				<path class="st0" d="M74.7,132.4c-1.3,1.6-3.7,2.9-5.3,2.9h-6.9L76.3,119h6.9c1.6,0,1.8,1.3,0.4,2.9L74.7,132.4z M81.2,121.9
					c0.6-0.7,0.5-1.2-0.2-1.2h-3.7l-11,13h3.7c0.7,0,1.7-0.5,2.2-1.2L81.2,121.9z"/>
				<path class="st0" d="M102.1,120.7h-4.9c-0.7,0-1.7,0.6-2.2,1.2l-3.8,4.5h5.7l-1.4,1.6h-5.7l-6.2,7.3h-2.4l11.3-13.4
					c1.3-1.6,3.7-2.9,5.2-2.9h5.7L102.1,120.7z"/>
				<path class="st0" d="M102,135.3h-2.4l6.2-7.3h-4.9l-6.2,7.3h-2.4l11.3-13.4c1.3-1.6,3.7-2.9,5.2-2.9h4.1c1.6,0,1.8,1.3,0.4,2.9
					L102,135.3z M107.1,126.3l3.8-4.5c0.6-0.7,0.5-1.2-0.2-1.2h-2.4c-0.7,0-1.7,0.6-2.2,1.2l-3.8,4.5H107.1z"/>
				<path class="st0" d="M113.7,135.3H108c-1.6,0-1.8-1.3-0.4-2.9l8.9-10.6c1.3-1.6,3.7-2.9,5.2-2.9h5.7l-1.4,1.6h-4.9
					c-0.7,0-1.7,0.6-2.2,1.2l-8.9,10.6c-0.6,0.7-0.5,1.2,0.2,1.2h4.9L113.7,135.3z"/>
				<path class="st0" d="M137.8,120.7h-4.1l-12.3,14.6H119l12.3-14.6h-4l1.4-1.6h10.6L137.8,120.7z"/>
				<path class="st0" d="M139.7,132.4c-1.3,1.6-3.7,2.9-5.3,2.9h-4.1c-1.6,0-1.8-1.3-0.4-2.9l8.9-10.6c1.3-1.6,3.7-2.9,5.2-2.9h4.1
					c1.6,0,1.8,1.3,0.4,2.9L139.7,132.4z M146.2,121.9c0.6-0.7,0.5-1.2-0.2-1.2h-2.4c-0.7,0-1.7,0.6-2.2,1.2l-8.9,10.6
					c-0.6,0.7-0.5,1.2,0.2,1.2h2.4c0.7,0,1.7-0.5,2.2-1.2L146.2,121.9z"/>
				<path class="st0" d="M150.7,135.3H148l2.9-7.3h-1.8l-6.2,7.3h-2.4l13.7-16.3h6.9c1.6,0,1.8,1.3,0.4,2.9l-2.7,3.2
					c-1.3,1.6-3.7,2.9-5.3,2.9L150.7,135.3z M159.2,121.9c0.6-0.7,0.5-1.2-0.2-1.2h-3.7l-4.8,5.7h3.7c0.7,0,1.7-0.5,2.2-1.2
					L159.2,121.9z"/>
				<path class="st0" d="M164,132.4c-1.3,1.6-3.7,2.9-5.2,2.9h-6.5l1.4-1.6h5.7c0.7,0,1.7-0.5,2.2-1.2l3.8-4.5h-4
					c-1.6,0-1.8-1.3-0.4-2.9l5.1-6.1h2.4l-5.1,6.1c-0.6,0.7-0.5,1.2,0.2,1.2h3.2l6.2-7.3h2.4L164,132.4z"/>
				<path class="st0" d="M182.7,132.4c-1.3,1.6-3.7,2.9-5.3,2.9h-6.9l13.7-16.3h6.9c1.6,0,1.8,1.3,0.4,2.9L182.7,132.4z
					 M189.2,121.9c0.6-0.7,0.5-1.2-0.2-1.2h-3.7l-11,13h3.7c0.7,0,1.7-0.5,2.2-1.2L189.2,121.9z"/>
				<path class="st0" d="M192.1,135.3h-5.7c-1.6,0-1.8-1.3-0.4-2.9l8.9-10.6c1.3-1.6,3.7-2.9,5.2-2.9h5.7l-1.4,1.6h-4.9
					c-0.7,0-1.7,0.6-2.2,1.2l-3.8,4.5h5.7l-1.4,1.6h-5.7l-3.8,4.5c-0.6,0.7-0.5,1.2,0.2,1.2h4.9L192.1,135.3z"/>
				<path class="st0" d="M205.9,132.4c-1.3,1.6-3.7,2.9-5.3,2.9h-6.1l1.4-1.6h5.3c0.7,0,1.7-0.5,2.2-1.2l2.4-2.8
					c0.6-0.7,0.5-1.2-0.2-1.2h-2.4c-1.6,0-1.8-1.3-0.4-2.9l3.1-3.7c1.2-1.4,3.7-2.9,5.3-2.9h6.1l-1.4,1.6h-5.3
					c-0.7,0-1.7,0.6-2.2,1.2l-2.4,2.9c-0.6,0.7-0.5,1.2,0.2,1.2h2.4c1.6,0,1.8,1.2,0.5,2.8L205.9,132.4z"/>
				<path class="st0" d="M212,135.3h-6.5l1.4-1.6h2l11-13h-2l1.4-1.6h6.5l-1.4,1.6h-2l-11,13h2L212,135.3z"/>
				<path class="st0" d="M226.2,132.4c-1.3,1.6-3.7,2.9-5.3,2.9h-3.7c-1.6,0-1.8-1.3-0.4-2.9l8.9-10.6c1.3-1.6,3.7-2.9,5.2-2.9h5.7
					l-1.4,1.6h-4.9c-0.7,0-1.7,0.6-2.2,1.2l-8.9,10.6c-0.6,0.7-0.5,1.2,0.2,1.2h2c0.7,0,1.7-0.5,2.2-1.2l3.8-4.5h-2l1.4-1.6h4.5
					L226.2,132.4z"/>
				<path class="st0" d="M236.4,135.3h-2.4l11.3-13.4c0.6-0.7,0.5-1.2-0.2-1.2h-2.4c-0.7,0-1.7,0.6-2.2,1.2l-11.3,13.4h-2.4
					l11.3-13.4c1.3-1.6,3.7-2.9,5.2-2.9h4.1c1.6,0,1.8,1.3,0.4,2.9L236.4,135.3z"/>
				<path class="st0" d="M250.6,132.4c-1.3,1.6-3.7,2.9-5.3,2.9h-6.1l1.4-1.6h5.3c0.7,0,1.7-0.5,2.2-1.2l2.4-2.8
					c0.6-0.7,0.5-1.2-0.2-1.2h-2.4c-1.6,0-1.8-1.3-0.4-2.9l3.1-3.7c1.2-1.4,3.7-2.9,5.3-2.9h6.1l-1.4,1.6h-5.3
					c-0.7,0-1.7,0.6-2.2,1.2l-2.4,2.9c-0.6,0.7-0.5,1.2,0.2,1.2h2.4c1.6,0,1.8,1.2,0.5,2.8L250.6,132.4z"/>
			</g>
			<g>
				<path d="M25.2,132.2c-1.3,1.6-3.7,2.9-5.3,2.9h-6.1l1.4-1.6h5.3c0.7,0,1.7-0.5,2.2-1.2l2.4-2.8c0.6-0.7,0.5-1.2-0.2-1.2h-2.4
					c-1.6,0-1.8-1.3-0.4-2.9l3.1-3.7c1.2-1.4,3.7-2.9,5.3-2.9h6.1l-1.4,1.6h-5.3c-0.7,0-1.7,0.6-2.2,1.2l-2.4,2.9
					c-0.6,0.7-0.5,1.2,0.2,1.2h2.4c1.6,0,1.8,1.2,0.5,2.8L25.2,132.2z"/>
				<path d="M44,124.9c-1.3,1.6-3.7,2.9-5.3,2.9h-4.5l-6.2,7.3h-2.4l13.7-16.3h6.9c1.6,0,1.8,1.3,0.4,2.9L44,124.9z M44.3,121.7
					c0.6-0.7,0.5-1.2-0.2-1.2h-3.7l-4.8,5.7h3.7c0.7,0,1.7-0.5,2.2-1.2L44.3,121.7z"/>
				<path d="M46.4,135.1h-5.7c-1.6,0-1.8-1.3-0.4-2.9l8.9-10.6c1.3-1.6,3.7-2.9,5.2-2.9h5.7l-1.4,1.6h-4.9c-0.7,0-1.7,0.6-2.2,1.2
					l-3.8,4.5h5.7l-1.4,1.6h-5.7l-3.8,4.5c-0.6,0.7-0.5,1.2,0.2,1.2h4.9L46.4,135.1z"/>
				<path d="M57.8,135.1h-5.7c-1.6,0-1.8-1.3-0.4-2.9l8.9-10.6c1.3-1.6,3.7-2.9,5.2-2.9h5.7l-1.4,1.6h-4.9c-0.7,0-1.7,0.6-2.2,1.2
					l-3.8,4.5h5.7l-1.4,1.6h-5.7l-3.8,4.5c-0.6,0.7-0.5,1.2,0.2,1.2h4.9L57.8,135.1z"/>
				<path d="M72.8,132.2c-1.3,1.6-3.7,2.9-5.3,2.9h-6.9l13.7-16.3h6.9c1.6,0,1.8,1.3,0.4,2.9L72.8,132.2z M79.2,121.7
					c0.6-0.7,0.5-1.2-0.2-1.2h-3.7l-11,13h3.7c0.7,0,1.7-0.5,2.2-1.2L79.2,121.7z"/>
				<path d="M100.1,120.4h-4.9c-0.7,0-1.7,0.6-2.2,1.2l-3.8,4.5h5.7l-1.4,1.6h-5.7l-6.2,7.3h-2.4l11.3-13.4c1.3-1.6,3.7-2.9,5.2-2.9
					h5.7L100.1,120.4z"/>
				<path d="M100,135.1h-2.4l6.2-7.3h-4.9l-6.2,7.3h-2.4l11.3-13.4c1.3-1.6,3.7-2.9,5.2-2.9h4.1c1.6,0,1.8,1.3,0.4,2.9L100,135.1z
					 M105.1,126.1l3.8-4.5c0.6-0.7,0.5-1.2-0.2-1.2h-2.4c-0.7,0-1.7,0.6-2.2,1.2l-3.8,4.5H105.1z"/>
				<path d="M111.8,135.1h-5.7c-1.6,0-1.8-1.3-0.4-2.9l8.9-10.6c1.3-1.6,3.7-2.9,5.2-2.9h5.7l-1.4,1.6h-4.9c-0.7,0-1.7,0.6-2.2,1.2
					l-8.9,10.6c-0.6,0.7-0.5,1.2,0.2,1.2h4.9L111.8,135.1z"/>
				<path d="M135.9,120.4h-4.1l-12.3,14.6H117l12.3-14.6h-4l1.4-1.6h10.6L135.9,120.4z"/>
				<path d="M137.7,132.2c-1.3,1.6-3.7,2.9-5.3,2.9h-4.1c-1.6,0-1.8-1.3-0.4-2.9l8.9-10.6c1.3-1.6,3.7-2.9,5.2-2.9h4.1
					c1.6,0,1.8,1.3,0.4,2.9L137.7,132.2z M144.2,121.7c0.6-0.7,0.5-1.2-0.2-1.2h-2.4c-0.7,0-1.7,0.6-2.2,1.2l-8.9,10.6
					c-0.6,0.7-0.5,1.2,0.2,1.2h2.4c0.7,0,1.7-0.5,2.2-1.2L144.2,121.7z"/>
				<path d="M148.7,135.1h-2.7l2.9-7.3h-1.8l-6.2,7.3h-2.4l13.7-16.3h6.9c1.6,0,1.8,1.3,0.4,2.9l-2.7,3.2c-1.3,1.6-3.7,2.9-5.3,2.9
					L148.7,135.1z M157.2,121.7c0.6-0.7,0.5-1.2-0.2-1.2h-3.7l-4.8,5.7h3.7c0.7,0,1.7-0.5,2.2-1.2L157.2,121.7z"/>
				<path d="M162.1,132.2c-1.3,1.6-3.7,2.9-5.2,2.9h-6.5l1.4-1.6h5.7c0.7,0,1.7-0.5,2.2-1.2l3.8-4.5h-4c-1.6,0-1.8-1.3-0.4-2.9
					l5.1-6.1h2.4l-5.1,6.1c-0.6,0.7-0.5,1.2,0.2,1.2h3.2l6.2-7.3h2.4L162.1,132.2z"/>
				<path d="M180.8,132.2c-1.3,1.6-3.7,2.9-5.3,2.9h-6.9l13.7-16.3h6.9c1.6,0,1.8,1.3,0.4,2.9L180.8,132.2z M187.2,121.7
					c0.6-0.7,0.5-1.2-0.2-1.2h-3.7l-11,13h3.7c0.7,0,1.7-0.5,2.2-1.2L187.2,121.7z"/>
				<path d="M190.1,135.1h-5.7c-1.6,0-1.8-1.3-0.4-2.9l8.9-10.6c1.3-1.6,3.7-2.9,5.2-2.9h5.7l-1.4,1.6h-4.9c-0.7,0-1.7,0.6-2.2,1.2
					l-3.8,4.5h5.7l-1.4,1.6h-5.7l-3.8,4.5c-0.6,0.7-0.5,1.2,0.2,1.2h4.9L190.1,135.1z"/>
				<path d="M203.9,132.2c-1.3,1.6-3.7,2.9-5.3,2.9h-6.1l1.4-1.6h5.3c0.7,0,1.7-0.5,2.2-1.2l2.4-2.8c0.6-0.7,0.5-1.2-0.2-1.2h-2.4
					c-1.6,0-1.8-1.3-0.4-2.9l3.1-3.7c1.2-1.4,3.7-2.9,5.3-2.9h6.1l-1.4,1.6h-5.3c-0.7,0-1.7,0.6-2.2,1.2l-2.4,2.9
					c-0.6,0.7-0.5,1.2,0.2,1.2h2.4c1.6,0,1.8,1.2,0.5,2.8L203.9,132.2z"/>
				<path d="M210,135.1h-6.5l1.4-1.6h2l11-13h-2l1.4-1.6h6.5l-1.4,1.6h-2l-11,13h2L210,135.1z"/>
				<path d="M224.2,132.2c-1.3,1.6-3.7,2.9-5.3,2.9h-3.7c-1.6,0-1.8-1.3-0.4-2.9l8.9-10.6c1.3-1.6,3.7-2.9,5.2-2.9h5.7l-1.4,1.6
					h-4.9c-0.7,0-1.7,0.6-2.2,1.2l-8.9,10.6c-0.6,0.7-0.5,1.2,0.2,1.2h2c0.7,0,1.7-0.5,2.2-1.2l3.8-4.5h-2l1.4-1.6h4.5L224.2,132.2z
					"/>
				<path d="M234.4,135.1H232l11.3-13.4c0.6-0.7,0.5-1.2-0.2-1.2h-2.4c-0.7,0-1.7,0.6-2.2,1.2l-11.3,13.4h-2.4l11.3-13.4
					c1.3-1.6,3.7-2.9,5.2-2.9h4.1c1.6,0,1.8,1.3,0.4,2.9L234.4,135.1z"/>
				<path d="M248.6,132.2c-1.3,1.6-3.7,2.9-5.3,2.9h-6.1l1.4-1.6h5.3c0.7,0,1.7-0.5,2.2-1.2l2.4-2.8c0.6-0.7,0.5-1.2-0.2-1.2h-2.4
					c-1.6,0-1.8-1.3-0.4-2.9l3.1-3.7c1.2-1.4,3.7-2.9,5.3-2.9h6.1l-1.4,1.6h-5.3c-0.7,0-1.7,0.6-2.2,1.2l-2.4,2.9
					c-0.6,0.7-0.5,1.2,0.2,1.2h2.4c1.6,0,1.8,1.2,0.5,2.8L248.6,132.2z"/>
			</g>
		</g>
		<g>
			<path class="st0" d="M155.5,54.7c0,0,7.8-3.2,10.2-8.8c0,0,14.8,2.1,25.1,0c0,0-5.4,7.3-19.8,9.5c0,0-2.6,12.3-1,24
				c0,0-3.5,13.3,7.8,15.3l-13,1.6c0,0-2.4-4,1.3-11.1c0,0-2.6-10.9-1-29.4C165.2,55.8,162.1,56.1,155.5,54.7z"/>
			<path class="st0" d="M189.5,49.9c0,0-5,5.7-14.7,6.9c0,0-3.7,10.5-0.8,21.3c0,0,8.4-5.4,11.4,6.4l7.3-7.1
				C192.6,77.4,200.1,70.8,189.5,49.9z M189.5,65.4c-2.8-2.1-7.8,6.6-7.8,6.6c-2-6.1-0.6-8.5-0.6-8.5c0.9-1.5,7.8-6.2,7.8-6.2
				S192.3,67.5,189.5,65.4z"/>
			<path class="st0" d="M207.6,71.3l4.5-1.2c0,0,5.9-12.1,2.7-19l0,0c0,0,0,0-0.1-0.1c-0.6-1.2-1.4-2.2-2.6-3c-2.8-2.2-7.9-4.3-17-2
				c0,0,0.9,1.4-2.8,3.4c0,0,6.9,12.7,4.8,26.5c0,0,2.2-3,4.1-2.2c1.9,0.7,0.3,10.6,21.7,12.6L207.6,71.3z M204.9,54.1
				c8.4-7.3,6.9,3.9,6.9,3.9c-5,1.6-5.9,5.9-5.9,5.9C207.1,56.8,204.9,54.1,204.9,54.1z"/>
			<circle class="st0" cx="177.4" cy="85.5" r="6.1"/>
			<path class="st0" d="M76.7,87.9c0,0-18,6.7-15.8,10.9c0,0,33.4,2.4,38.1-10.9c0,0-15.1,8.5-21.7,5.5c0,0,21.6-23.4,22.7-28.4"/>
			<path class="st0" d="M106.2,78.8c0,3.5-2.9,6.4-6.6,6.4c-3.6,0-6.6-2.8-6.6-6.4c0-3.5,2.9-6.4,6.6-6.4
				C103.3,72.4,106.2,75.3,106.2,78.8z"/>
			<path class="st0" d="M161.2,88.8c0,0-7.5,0.9-10.8,8.2l1.8,0.7l-0.3-1c0,0,7.3,1.3,11.6-0.3C163.5,96.4,158.4,93.9,161.2,88.8z"
				/>
			<path class="st0" d="M151.2,77.9c0.2,2-0.1,4.2-1.7,5.5c-3.7,2.9-11.8,3.1-11.8,3.1s9.6-17.6,11.6-30.8c0,0,11.8-4,13.9-9.7
				c0,0-11,3.6-15.6,0.4c0,0-6.6,38.7-17.6,40.3c0,0-8.3,4.9-2.3,6.2c0,0,14.9-3.5,21.3-4.1c4.3-0.4,6.8-6.1,6.6-11.2
				C154.1,77.7,152.6,77.8,151.2,77.9z"/>
			<path class="st0" d="M160.5,20.8c1.5-1.8,3.3-3.7,5.2-5.3c-8.7-0.2-12.5-2-12.5-2c0.4,2.2-2.6,7.5-2.6,7.5
				C157.7,16.9,159.9,19.4,160.5,20.8z"/>
			<path class="st0" d="M158.8,24.8c-3.5-0.2-7.4-0.6-11-1.4c0,0,5.4-7.1,3.8-12.8l-6.2-5.3c0,0,0.4,15.8-14.5,23.2
				c0,0,11.2-0.2,24.5,0.6C155.8,28.4,157,26.8,158.8,24.8z"/>
			<polyline class="st0" points="107.5,13.1 100,30 99.9,19.3 			"/>
			<path class="st0" d="M158.7,29.2c0,0,16.1-22.6,31.3-21.3c0,0-18.3,14.6-17.5,23C172.6,30.8,165.5,29.4,158.7,29.2z"/>
			<path class="st0" d="M147.3,5l5.4,4.5c0,0,11.7-0.8,20.2,1.2c0,0,9.2-7.3,15.7-4.2C188.5,6.6,173-4.7,147.3,5z"/>
			<path class="st0" d="M144.9,45.9c-10.9-5-24.6,3.6-24.6,3.6c-3.1,3-10.6,4.8-10.6,4.8c3,0.4,7.1,0,9.6-0.2l0,0l0.4-0.1
				c1.1-0.1,1.8-0.2,1.8-0.2l9.5-1.2c0,0-1.5,6.6-11.8,9.9s-5.1,12.8-5.1,12.8l8.5-7.2l12.2,11.3C134.9,79.4,145.7,49.6,144.9,45.9z
				 M135.7,62.3c0,0-3.9,2.9-7.9,0c0,0,6.2-3.6,7.9-9l6-2.3L135.7,62.3z"/>
			<path class="st0" d="M155.8,60.7c0-0.2,0-0.5,0-0.7l-3.1-2.4l-4.2,6.5c1.9,0,5.1,0,9.7-0.4C157,63.3,156,62.1,155.8,60.7z"/>
			<path class="st0" d="M163,63.1c0-0.1,0-0.2,0-0.2S163,63,163,63.1c0,0.1,0,0.2,0,0.2S163,63.3,163,63.1z"/>
			<path class="st0" d="M163.3,57c0,0-1.6,0.1-4.8-0.2c-0.5,0.7-0.7,1.5-0.7,2.4c0,2.4,1.9,4.3,4.3,4.3c0.3,0,0.6,0,0.8-0.1
				C163,61.3,163.2,59.2,163.3,57z"/>
			<path class="st0" d="M178.4,22.9c0,0-3.9,3.7-4,7.9c0,0,42.2,2.5,30.2-11.8C204.6,19.1,209.2,25.3,178.4,22.9z"/>
			<path class="st0" d="M190.8,8.6l-2.7,3.2c0,0,7.9,4.8,13.7,3.3L190.8,8.6z"/>
			<path class="st0" d="M143,5.4c0,0-5.7,1.3-20.6-5l0,0c0,0-2.4-0.7-13,0.9c0,0,0,0.1,0,0.1c0,0,20.1,6.2,0.7,30.7
				c0,0,10.2-4,18.8-3.7l-3.8-1.2l0.5-1.4C125.6,25.7,143.1,25.6,143,5.4z M131.8,9.1c1.6,4.5,8.1-3.7,5.9,2.3
				c-1.7,4.6-4.2,6.3-5.3,6.9l-3.7-2.3C132.2,12.5,131.8,9.1,131.8,9.1z"/>
			<path class="st0" d="M193.7,5.1c22.1,15.4,15.9,22.5,6.5,25.7c0,0,0,0,0,0c-8,2.2-17.5,2.3-24.2,2c-2.8-0.3-5.7-0.5-8.6-0.7l0,0
				l0,0c-30.3-2.4-61.7-2.9-66.2,12.3c-8.4,28.6-24.5,43.5-24.5,43.5c17.4-9.1,23.3-22.9,23.3-22.9c22-4,27.6-10.6,27.6-10.6
				c-12.6,3.7-23.9,3.2-23.9,3.2c5.2-24.9,45.3-17.8,45.3-17.8c55.5,8,73.9-3.9,76.5-5.9c0.3-0.2,0.4-0.3,0.4-0.3
				C217.6,12.6,193.7,5.1,193.7,5.1z M210.5,32.5c4.1-4.6,2.4-9.6,2.4-9.6c1.7,4.7,4.2,1.6,6.9,4.2S210.5,32.5,210.5,32.5z"/>
			<path class="st0" d="M190.1,18.7c0-1.1,0.6-2.1,1.5-2.5l-6.1-0.8c0,0-4.3,2.1-5.3,5.6c0,0,5.8-2.3,11,0.1
				C190.6,20.5,190.1,19.7,190.1,18.7z"/>
			<path class="st0" d="M113.5,6.9c-11.7-12.1-28.9,4.3-28.9,4.3l1.7,6.1c-4,0.2-7.3,3.4-7.3,7.4c0,0.1,0,0.2,0,0.3
				c-19.5-8.3-1.8-6.8-1.8-6.8c-22.7-15-12.8,7.7-2.6,16.6c10.2,8.9,24.9,4.6,24.9,4.6c-9.2-13.7,3.4-35.5,7.9-30.3
				c4.5,5.2-7.5,25.7-7.5,25.7S125.2,19,113.5,6.9z"/>
			<g>
				<path class="st0" d="M108,77.4c0,1.6-0.6,3-1.5,4.1L112,77c-4.2-4.5-1.8-11.3-1.8-11.3l-5.9,1.5L103,71
					C105.9,71.8,108,74.3,108,77.4z"/>
			</g>
			<path class="st0" d="M92,81.9c-1.6,2.1-4.7,5.7-9.6,9c0,0,6.9-1.4,14.1-4.6C94.3,85.7,92.6,84,92,81.9z"/>
			<path class="st0" d="M99.5,39.4"/>
			<path class="st0" d="M113.5,6.9c-11.7-12.1-28.9,4.3-28.9,4.3l1.7,6.1c-4,0.2-7.3,3.4-7.3,7.4c0,0.1,0,0.2,0,0.3
				c-19.5-8.3-1.8-6.8-1.8-6.8c-22.7-15-12.8,7.7-2.6,16.6c10.2,8.9,24.9,4.6,24.9,4.6c-9.2-13.7,3.4-35.5,7.9-30.3
				c4.5,5.2-7.5,25.7-7.5,25.7S125.2,19,113.5,6.9z"/>
			<path class="st0" d="M231.3,61.2c0,0-2.2-7.4-4.2-20.9l-0.7-3.5c0,0-0.4,0.6-4.1,2.6c2.2,8.2,1.4,23.2,1.4,23.2l0.2,0.1l-3,0.6
				c0-0.2,0.1-0.5,0.1-0.7c0.7-5.4-0.1-15.1-0.1-15.1s0.2-1.1,0-4.2c-0.2-3.1-4,0-4,0c-1.1,0.8-1.8,1.3-2.3,1.6c0,0.1,0,0.1,0,0.2
				c0.7,0.5,2.3,1.7,3.1,5l0.4,3.6c0.1,3.5-0.5,8.4-2.6,15.3l5.1-1c-1.3,1.2-2.1,2.8-2.1,4.5c0,3.5,3.2,6.3,7.2,6.3
				c0.3,0,0.6,0,0.9-0.1c0,4.3-0.9,9-4,12.6c-0.5-0.8-0.5-2,0.6-3.6c0,0-7.4,1.5-10.8,7.3l1.8,0.4l-0.3-0.7c0,0,2.5,0.1,5.4-0.2
				C222.5,94.5,244.6,92.3,231.3,61.2z"/>
			<path class="st0" d="M69,32.6c0,0-2.3-2.1-5.5-8.8c0,0-12.1-13.8-10.7,3.1c0,0-10.3,13.1-6.2,12.9c0,0-0.1,1.2-1,2
				c-0.9,0.8,6.5-2.6,8.9-2s6.7-7.5,18.1-3.3C72.6,36.6,70.1,34.7,69,32.6z"/>
			<path class="st0" d="M46.2,60.3l-9.1-3.7l0.8-0.6c0,0-5.8-0.6-0.7-3.5c0,0,3.8-5.4,6.8-8.1c0,0,6.2-3.5,10.1-2.9
				c3.9,0.6,9.2-1.4,9.3-3.1c0.1-1.6,7.2-2.2,12,0.4c4.8,2.7,10,6.8,24.3,3.2c0,0-3,9.8-5.9,11.1l-10,2.7c0,0,5.8-13-17.9-10.8
				s-9.6,8.4-20,14.1L46.2,60.3z"/>
			<path class="st0" d="M82.1,54.7c0,0-4.7,5.4-16.3,8.5c0,0-2.1-3.6-11.7,1.9c0,0-2,0.1-5.4-2l-0.2-3.2l0.8,0.5l0.2-1l1.1,1
				c0,0,2.6-12.2,14.2-12.7C76.4,47.3,79.6,48,82.1,54.7z"/>
		</g>
	</g>
</g>
</svg>
