<?xml version="1.0" encoding="utf-8"?>
<!-- Generator: Adobe Illustrator 22.0.1, SVG Export Plug-In . SVG Version: 6.00 Build 0)  -->
<svg version="1.1" xmlns="http://www.w3.org/2000/svg" xmlns:xlink="http://www.w3.org/1999/xlink" x="0px" y="0px"
	 viewBox="0 0 331 33.3" style="enable-background:new 0 0 331 33.3;" xml:space="preserve">
<style type="text/css">
	.st0{fill:#FFFFFF;}
	.st1{clip-path:url(#SVGID_2_);}
</style>
<g id="Layer_5">
	<g>
		<path class="st0" d="M40.4,18.6c0,0,2.6-1.1,3.4-2.9c0,0,5,0.7,8.4,0c0,0-1.8,2.5-6.6,3.2c0,0-0.9,4.1-0.3,8c0,0-1.2,4.4,2.6,5.1
			l-4.4,0.5c0,0-0.8-1.4,0.4-3.7c0,0-0.9-3.6-0.3-9.8C43.6,19,42.6,19.1,40.4,18.6z"/>
		<path class="st0" d="M51.7,17c0,0-1.7,1.9-4.9,2.3c0,0-1.2,3.5-0.3,7.1c0,0,2.8-1.8,3.8,2.1l2.5-2.4C52.8,26.2,55.3,24,51.7,17z
			 M51.7,22.2c-0.9-0.7-2.6,2.2-2.6,2.2c-0.7-2-0.2-2.8-0.2-2.8c0.3-0.5,2.6-2.1,2.6-2.1S52.7,22.9,51.7,22.2z"/>
		<path class="st0" d="M57.8,24.2l1.5-0.4c0,0,2-4.1,0.9-6.4l0,0c0,0,0,0,0,0c-0.2-0.4-0.5-0.7-0.9-1c-0.9-0.7-2.7-1.5-5.7-0.7
			c0,0,0.3,0.5-0.9,1.1c0,0,2.3,4.3,1.6,8.9c0,0,0.7-1,1.4-0.7c0.6,0.2,0.1,3.5,7.3,4.2L57.8,24.2z M56.9,18.4
			c2.8-2.5,2.3,1.3,2.3,1.3c-1.7,0.5-2,2-2,2C57.7,19.3,56.9,18.4,56.9,18.4z"/>
		<circle class="st0" cx="47.7" cy="28.9" r="2"/>
		<path class="st0" d="M14,29.7c0,0-6,2.2-5.3,3.6c0,0,11.2,0.8,12.7-3.6c0,0-5.1,2.8-7.2,1.8c0,0,7.2-7.8,7.6-9.5"/>
		<path class="st0" d="M23.9,26.7c0,1.2-1,2.1-2.2,2.1c-1.2,0-2.2-1-2.2-2.1c0-1.2,1-2.1,2.2-2.1C22.9,24.5,23.9,25.5,23.9,26.7z"/>
		<path class="st0" d="M42.3,30c0,0-2.5,0.3-3.6,2.7l0.6,0.2l-0.1-0.3c0,0,2.4,0.4,3.9-0.1C43,32.6,41.4,31.7,42.3,30z"/>
		<path class="st0" d="M38.9,26.4c0.1,0.7,0,1.4-0.6,1.9c-1.2,1-3.9,1-3.9,1s3.2-5.9,3.9-10.3c0,0,3.9-1.3,4.6-3.3
			c0,0-3.7,1.2-5.2,0.1c0,0-2.2,12.9-5.9,13.5c0,0-2.8,1.6-0.8,2.1c0,0,5-1.2,7.1-1.4c1.4-0.1,2.3-2,2.2-3.7
			C39.9,26.3,39.4,26.3,38.9,26.4z"/>
		<path class="st0" d="M42.1,7.3c0.5-0.6,1.1-1.2,1.8-1.8c-2.9-0.1-4.2-0.7-4.2-0.7c0.1,0.7-0.9,2.5-0.9,2.5
			C41.1,6,41.8,6.8,42.1,7.3z"/>
		<path class="st0" d="M41.5,8.6c-1.2-0.1-2.5-0.2-3.7-0.5c0,0,1.8-2.4,1.3-4.3L37,2.1c0,0,0.1,5.3-4.8,7.8c0,0,3.7-0.1,8.2,0.2
			C40.5,9.8,40.9,9.3,41.5,8.6z"/>
		<polyline class="st0" points="24.3,4.7 21.8,10.3 21.8,6.8 		"/>
		<path class="st0" d="M41.5,10.1c0,0,5.4-7.6,10.5-7.1c0,0-6.1,4.9-5.8,7.7C46.1,10.6,43.7,10.1,41.5,10.1z"/>
		<path class="st0" d="M37.6,2l1.8,1.5c0,0,3.9-0.3,6.8,0.4c0,0,3.1-2.4,5.2-1.4C51.4,2.5,46.2-1.2,37.6,2z"/>
		<path class="st0" d="M36.8,15.7c-3.6-1.7-8.2,1.2-8.2,1.2c-1,1-3.5,1.6-3.5,1.6c1,0.1,2.4,0,3.2-0.1l0,0l0.1,0
			c0.4,0,0.6-0.1,0.6-0.1l3.2-0.4c0,0-0.5,2.2-3.9,3.3c-3.4,1.1-1.7,4.3-1.7,4.3l2.8-2.4l4.1,3.8C33.5,26.9,37.1,16.9,36.8,15.7z
			 M33.8,21.2c0,0-1.3,1-2.6,0c0,0,2.1-1.2,2.6-3l2-0.8L33.8,21.2z"/>
		<path class="st0" d="M40.5,20.6c0-0.1,0-0.2,0-0.2l-1-0.8L38,21.8c0.6,0,1.7,0,3.3-0.1C40.9,21.5,40.5,21.1,40.5,20.6z"/>
		<path class="st0" d="M42.9,21.4C42.9,21.4,42.9,21.4,42.9,21.4C42.9,21.4,42.9,21.4,42.9,21.4S42.9,21.5,42.9,21.4
			C42.9,21.5,42.9,21.5,42.9,21.4z"/>
		<path class="st0" d="M43,19.4c0,0-0.5,0-1.6-0.1c-0.2,0.2-0.2,0.5-0.2,0.8c0,0.8,0.6,1.4,1.4,1.4c0.1,0,0.2,0,0.3,0
			C42.9,20.8,42.9,20.1,43,19.4z"/>
		<path class="st0" d="M48,8c0,0-1.3,1.2-1.4,2.7c0,0,14.1,0.8,10.1-3.9C56.8,6.7,58.4,8.8,48,8z"/>
		<path class="st0" d="M52.2,3.2l-0.9,1.1c0,0,2.6,1.6,4.6,1.1L52.2,3.2z"/>
		<path class="st0" d="M36.2,2.1c0,0-1.9,0.4-6.9-1.7l0,0c0,0-0.8-0.2-4.3,0.3c0,0,0,0,0,0c0,0,6.7,2.1,0.2,10.3
			c0,0,3.4-1.3,6.3-1.2l-1.3-0.4l0.2-0.5C30.4,8.9,36.2,8.9,36.2,2.1z M32.5,3.4c0.5,1.5,2.7-1.2,2,0.8c-0.6,1.5-1.4,2.1-1.8,2.3
			l-1.2-0.8C32.6,4.5,32.5,3.4,32.5,3.4z"/>
		<path class="st0" d="M53.1,2c7.4,5.2,5.3,7.5,2.2,8.6c0,0,0,0,0,0c-2.7,0.7-5.8,0.8-8.1,0.7c-0.9-0.1-1.9-0.2-2.9-0.2l0,0l0,0
			c-10.1-0.8-20.6-1-22.1,4.1C19.4,24.7,14,29.7,14,29.7c5.8-3.1,7.8-7.6,7.8-7.6c7.3-1.3,9.2-3.6,9.2-3.6c-4.2,1.2-8,1.1-8,1.1
			c1.7-8.3,15.1-5.9,15.1-5.9c18.6,2.7,24.7-1.3,25.6-2c0.1-0.1,0.1-0.1,0.1-0.1C61.2,4.5,53.1,2,53.1,2z M58.8,11.2
			C60.2,9.7,59.6,8,59.6,8c0.6,1.6,1.4,0.5,2.3,1.4C62.8,10.3,58.8,11.2,58.8,11.2z"/>
		<path class="st0" d="M52,6.6c0-0.4,0.2-0.7,0.5-0.8l-2-0.3c0,0-1.4,0.7-1.8,1.9c0,0,1.9-0.8,3.7,0C52.1,7.2,52,6.9,52,6.6z"/>
		<path class="st0" d="M26.3,2.6c-3.9-4-9.7,1.4-9.7,1.4l0.6,2c-1.4,0.1-2.4,1.1-2.4,2.5c0,0,0,0.1,0,0.1c-6.5-2.8-0.6-2.3-0.6-2.3
			c-7.6-5-4.3,2.6-0.9,5.6c3.4,3,8.3,1.5,8.3,1.5c-3.1-4.6,1.1-11.9,2.7-10.1c1.5,1.7-2.5,8.6-2.5,8.6S30.3,6.7,26.3,2.6z"/>
		<g>
			<path class="st0" d="M24.5,26.2c0,0.5-0.2,1-0.5,1.4l1.8-1.5c-1.4-1.5-0.6-3.8-0.6-3.8l-2,0.5l-0.4,1.3
				C23.8,24.3,24.5,25.2,24.5,26.2z"/>
		</g>
		<path class="st0" d="M19.1,27.7c-0.5,0.7-1.6,1.9-3.2,3c0,0,2.3-0.5,4.7-1.5C19.9,29,19.4,28.4,19.1,27.7z"/>
		<path class="st0" d="M21.7,13.5"/>
		<path class="st0" d="M26.3,2.6c-3.9-4-9.7,1.4-9.7,1.4l0.6,2c-1.4,0.1-2.4,1.1-2.4,2.5c0,0,0,0.1,0,0.1c-6.5-2.8-0.6-2.3-0.6-2.3
			c-7.6-5-4.3,2.6-0.9,5.6c3.4,3,8.3,1.5,8.3,1.5c-3.1-4.6,1.1-11.9,2.7-10.1c1.5,1.7-2.5,8.6-2.5,8.6S30.3,6.7,26.3,2.6z"/>
		<path class="st0" d="M65.7,20.8c0,0-0.7-2.5-1.4-7l-0.2-1.2c0,0-0.1,0.2-1.4,0.9c0.7,2.8,0.5,7.7,0.5,7.7l0.1,0l-1,0.2
			c0-0.1,0-0.2,0-0.2c0.2-1.8,0-5.1,0-5.1s0.1-0.4,0-1.4c-0.1-1-1.3,0-1.3,0c-0.4,0.3-0.6,0.4-0.8,0.5c0,0,0,0,0,0.1
			c0.2,0.2,0.8,0.6,1,1.7l0.1,1.2c0,1.2-0.2,2.8-0.9,5.1l1.7-0.3c-0.4,0.4-0.7,0.9-0.7,1.5c0,1.2,1.1,2.1,2.4,2.1c0.1,0,0.2,0,0.3,0
			c0,1.4-0.3,3-1.3,4.2c-0.2-0.3-0.2-0.7,0.2-1.2c0,0-2.5,0.5-3.6,2.4l0.6,0.1L59.9,32c0,0,0.8,0,1.8-0.1
			C62.8,31.9,70.2,31.2,65.7,20.8z"/>
		<path class="st0" d="M11.4,11.2c0,0-0.8-0.7-1.8-2.9c0,0-4.1-4.6-3.6,1c0,0-3.4,4.4-2.1,4.3c0,0,0,0.4-0.3,0.7
			c-0.3,0.3,2.2-0.9,3-0.7c0.8,0.2,2.2-2.5,6-1.1C12.7,12.5,11.8,11.9,11.4,11.2z"/>
		<path class="st0" d="M3.8,20.5l-3-1.3L1.1,19c0,0-1.9-0.2-0.2-1.2c0,0,1.3-1.8,2.3-2.7c0,0,2.1-1.2,3.4-1c1.3,0.2,3.1-0.5,3.1-1
			c0-0.5,2.4-0.7,4,0.1c1.6,0.9,3.3,2.3,8.1,1.1c0,0-1,3.3-2,3.7L16.4,19c0,0,1.9-4.4-6-3.6s-3.2,2.8-6.7,4.7L3.8,20.5z"/>
		<path class="st0" d="M15.8,18.6c0,0-1.6,1.8-5.4,2.8c0,0-0.7-1.2-3.9,0.6c0,0-0.7,0-1.8-0.7l-0.1-1.1l0.3,0.2l0.1-0.3l0.4,0.3
			c0,0,0.9-4.1,4.7-4.2C13.9,16.1,15,16.4,15.8,18.6z"/>
	</g>
</g>
<g id="Layer_4">
	<polygon class="st0" points="319.5,33.4 48.6,33.4 60.2,17.5 331.1,17.5 	"/>
</g>
<g id="Layer_3">
	<polygon class="st0" points="319.5,33.4 48.6,33.4 60.2,17.5 331.1,17.5 	"/>
	<g>
		<defs>
			<polygon id="SVGID_1_" points="319.5,33.4 48.6,33.4 60.2,17.5 331.1,17.5 			"/>
		</defs>
		<clipPath id="SVGID_2_">
			<use xlink:href="#SVGID_1_"  style="overflow:visible;"/>
		</clipPath>
		<g class="st1">
			<path d="M40.4,18.6c0,0,2.6-1.1,3.4-2.9c0,0,5,0.7,8.4,0c0,0-1.8,2.5-6.6,3.2c0,0-0.9,4.1-0.3,8c0,0-1.2,4.4,2.6,5.1l-4.4,0.5
				c0,0-0.8-1.4,0.4-3.7c0,0-0.9-3.6-0.3-9.8C43.6,19,42.6,19.1,40.4,18.6z"/>
			<path d="M51.7,17c0,0-1.7,1.9-4.9,2.3c0,0-1.2,3.5-0.3,7.1c0,0,2.8-1.8,3.8,2.1l2.5-2.4C52.8,26.2,55.3,24,51.7,17z M51.7,22.2
				c-0.9-0.7-2.6,2.2-2.6,2.2c-0.7-2-0.2-2.8-0.2-2.8c0.3-0.5,2.6-2.1,2.6-2.1S52.7,22.9,51.7,22.2z"/>
			<path d="M57.8,24.2l1.5-0.4c0,0,2-4.1,0.9-6.4l0,0c0,0,0,0,0,0c-0.2-0.4-0.5-0.7-0.9-1c-0.9-0.7-2.7-1.5-5.7-0.7
				c0,0,0.3,0.5-0.9,1.1c0,0,2.3,4.3,1.6,8.9c0,0,0.7-1,1.4-0.7c0.6,0.2,0.1,3.5,7.3,4.2L57.8,24.2z M56.9,18.4
				c2.8-2.5,2.3,1.3,2.3,1.3c-1.7,0.5-2,2-2,2C57.7,19.3,56.9,18.4,56.9,18.4z"/>
			<circle cx="47.7" cy="28.9" r="2"/>
			<path d="M14,29.7c0,0-6,2.2-5.3,3.6c0,0,11.2,0.8,12.7-3.6c0,0-5.1,2.8-7.2,1.8c0,0,7.2-7.8,7.6-9.5"/>
			<path d="M23.9,26.7c0,1.2-1,2.1-2.2,2.1c-1.2,0-2.2-1-2.2-2.1c0-1.2,1-2.1,2.2-2.1C22.9,24.5,23.9,25.5,23.9,26.7z"/>
			<path d="M42.3,30c0,0-2.5,0.3-3.6,2.7l0.6,0.2l-0.1-0.3c0,0,2.4,0.4,3.9-0.1C43,32.6,41.4,31.7,42.3,30z"/>
			<path d="M38.9,26.4c0.1,0.7,0,1.4-0.6,1.9c-1.2,1-3.9,1-3.9,1s3.2-5.9,3.9-10.3c0,0,3.9-1.3,4.6-3.3c0,0-3.7,1.2-5.2,0.1
				c0,0-2.2,12.9-5.9,13.5c0,0-2.8,1.6-0.8,2.1c0,0,5-1.2,7.1-1.4c1.4-0.1,2.3-2,2.2-3.7C39.9,26.3,39.4,26.3,38.9,26.4z"/>
			<path d="M42.1,7.3c0.5-0.6,1.1-1.2,1.8-1.8c-2.9-0.1-4.2-0.7-4.2-0.7c0.1,0.7-0.9,2.5-0.9,2.5C41.1,6,41.8,6.8,42.1,7.3z"/>
			<path d="M41.5,8.6c-1.2-0.1-2.5-0.2-3.7-0.5c0,0,1.8-2.4,1.3-4.3L37,2.1c0,0,0.1,5.3-4.8,7.8c0,0,3.7-0.1,8.2,0.2
				C40.5,9.8,40.9,9.3,41.5,8.6z"/>
			<polyline points="24.3,4.7 21.8,10.3 21.8,6.8 			"/>
			<path d="M41.5,10.1c0,0,5.4-7.6,10.5-7.1c0,0-6.1,4.9-5.8,7.7C46.1,10.6,43.7,10.1,41.5,10.1z"/>
			<path d="M37.6,2l1.8,1.5c0,0,3.9-0.3,6.8,0.4c0,0,3.1-2.4,5.2-1.4C51.4,2.5,46.2-1.2,37.6,2z"/>
			<path d="M36.8,15.7c-3.6-1.7-8.2,1.2-8.2,1.2c-1,1-3.5,1.6-3.5,1.6c1,0.1,2.4,0,3.2-0.1l0,0l0.1,0c0.4,0,0.6-0.1,0.6-0.1l3.2-0.4
				c0,0-0.5,2.2-3.9,3.3c-3.4,1.1-1.7,4.3-1.7,4.3l2.8-2.4l4.1,3.8C33.5,26.9,37.1,16.9,36.8,15.7z M33.8,21.2c0,0-1.3,1-2.6,0
				c0,0,2.1-1.2,2.6-3l2-0.8L33.8,21.2z"/>
			<path d="M40.5,20.6c0-0.1,0-0.2,0-0.2l-1-0.8L38,21.8c0.6,0,1.7,0,3.3-0.1C40.9,21.5,40.5,21.1,40.5,20.6z"/>
			<path d="M42.9,21.4C42.9,21.4,42.9,21.4,42.9,21.4C42.9,21.4,42.9,21.4,42.9,21.4S42.9,21.5,42.9,21.4
				C42.9,21.5,42.9,21.5,42.9,21.4z"/>
			<path d="M43,19.4c0,0-0.5,0-1.6-0.1c-0.2,0.2-0.2,0.5-0.2,0.8c0,0.8,0.6,1.4,1.4,1.4c0.1,0,0.2,0,0.3,0
				C42.9,20.8,42.9,20.1,43,19.4z"/>
			<path d="M48,8c0,0-1.3,1.2-1.4,2.7c0,0,14.1,0.8,10.1-3.9C56.8,6.7,58.4,8.8,48,8z"/>
			<path d="M52.2,3.2l-0.9,1.1c0,0,2.6,1.6,4.6,1.1L52.2,3.2z"/>
			<path d="M36.2,2.1c0,0-1.9,0.4-6.9-1.7l0,0c0,0-0.8-0.2-4.3,0.3c0,0,0,0,0,0c0,0,6.7,2.1,0.2,10.3c0,0,3.4-1.3,6.3-1.2l-1.3-0.4
				l0.2-0.5C30.4,8.9,36.2,8.9,36.2,2.1z M32.5,3.4c0.5,1.5,2.7-1.2,2,0.8c-0.6,1.5-1.4,2.1-1.8,2.3l-1.2-0.8
				C32.6,4.5,32.5,3.4,32.5,3.4z"/>
			<path d="M53.1,2c7.4,5.2,5.3,7.5,2.2,8.6c0,0,0,0,0,0c-2.7,0.7-5.8,0.8-8.1,0.7c-0.9-0.1-1.9-0.2-2.9-0.2l0,0l0,0
				c-10.1-0.8-20.6-1-22.1,4.1C19.4,24.7,14,29.7,14,29.7c5.8-3.1,7.8-7.6,7.8-7.6c7.3-1.3,9.2-3.6,9.2-3.6c-4.2,1.2-8,1.1-8,1.1
				c1.7-8.3,15.1-5.9,15.1-5.9c18.6,2.7,24.7-1.3,25.6-2c0.1-0.1,0.1-0.1,0.1-0.1C61.2,4.5,53.1,2,53.1,2z M58.8,11.2
				C60.2,9.7,59.6,8,59.6,8c0.6,1.6,1.4,0.5,2.3,1.4C62.8,10.3,58.8,11.2,58.8,11.2z"/>
			<path d="M52,6.6c0-0.4,0.2-0.7,0.5-0.8l-2-0.3c0,0-1.4,0.7-1.8,1.9c0,0,1.9-0.8,3.7,0C52.1,7.2,52,6.9,52,6.6z"/>
			<path d="M26.3,2.6c-3.9-4-9.7,1.4-9.7,1.4l0.6,2c-1.4,0.1-2.4,1.1-2.4,2.5c0,0,0,0.1,0,0.1c-6.5-2.8-0.6-2.3-0.6-2.3
				c-7.6-5-4.3,2.6-0.9,5.6c3.4,3,8.3,1.5,8.3,1.5c-3.1-4.6,1.1-11.9,2.7-10.1c1.5,1.7-2.5,8.6-2.5,8.6S30.3,6.7,26.3,2.6z"/>
			<g>
				<path d="M24.5,26.2c0,0.5-0.2,1-0.5,1.4l1.8-1.5c-1.4-1.5-0.6-3.8-0.6-3.8l-2,0.5l-0.4,1.3C23.8,24.3,24.5,25.2,24.5,26.2z"/>
			</g>
			<path d="M19.1,27.7c-0.5,0.7-1.6,1.9-3.2,3c0,0,2.3-0.5,4.7-1.5C19.9,29,19.4,28.4,19.1,27.7z"/>
			<path d="M21.7,13.5"/>
			<path d="M26.3,2.6c-3.9-4-9.7,1.4-9.7,1.4l0.6,2c-1.4,0.1-2.4,1.1-2.4,2.5c0,0,0,0.1,0,0.1c-6.5-2.8-0.6-2.3-0.6-2.3
				c-7.6-5-4.3,2.6-0.9,5.6c3.4,3,8.3,1.5,8.3,1.5c-3.1-4.6,1.1-11.9,2.7-10.1c1.5,1.7-2.5,8.6-2.5,8.6S30.3,6.7,26.3,2.6z"/>
			<path d="M65.7,20.8c0,0-0.7-2.5-1.4-7l-0.2-1.2c0,0-0.1,0.2-1.4,0.9c0.7,2.8,0.5,7.7,0.5,7.7l0.1,0l-1,0.2c0-0.1,0-0.2,0-0.2
				c0.2-1.8,0-5.1,0-5.1s0.1-0.4,0-1.4c-0.1-1-1.3,0-1.3,0c-0.4,0.3-0.6,0.4-0.8,0.5c0,0,0,0,0,0.1c0.2,0.2,0.8,0.6,1,1.7l0.1,1.2
				c0,1.2-0.2,2.8-0.9,5.1l1.7-0.3c-0.4,0.4-0.7,0.9-0.7,1.5c0,1.2,1.1,2.1,2.4,2.1c0.1,0,0.2,0,0.3,0c0,1.4-0.3,3-1.3,4.2
				c-0.2-0.3-0.2-0.7,0.2-1.2c0,0-2.5,0.5-3.6,2.4l0.6,0.1L59.9,32c0,0,0.8,0,1.8-0.1C62.8,31.9,70.2,31.2,65.7,20.8z"/>
			<path d="M11.4,11.2c0,0-0.8-0.7-1.8-2.9c0,0-4.1-4.6-3.6,1c0,0-3.4,4.4-2.1,4.3c0,0,0,0.4-0.3,0.7c-0.3,0.3,2.2-0.9,3-0.7
				c0.8,0.2,2.2-2.5,6-1.1C12.7,12.5,11.8,11.9,11.4,11.2z"/>
			<path d="M3.8,20.5l-3-1.3L1.1,19c0,0-1.9-0.2-0.2-1.2c0,0,1.3-1.8,2.3-2.7c0,0,2.1-1.2,3.4-1c1.3,0.2,3.1-0.5,3.1-1
				c0-0.5,2.4-0.7,4,0.1c1.6,0.9,3.3,2.3,8.1,1.1c0,0-1,3.3-2,3.7L16.4,19c0,0,1.9-4.4-6-3.6s-3.2,2.8-6.7,4.7L3.8,20.5z"/>
			<path d="M15.8,18.6c0,0-1.6,1.8-5.4,2.8c0,0-0.7-1.2-3.9,0.6c0,0-0.7,0-1.8-0.7l-0.1-1.1l0.3,0.2l0.1-0.3l0.4,0.3
				c0,0,0.9-4.1,4.7-4.2C13.9,16.1,15,16.4,15.8,18.6z"/>
		</g>
	</g>
</g>
<g id="Layer_2">
	<g>
		<g>
			<g>
				<g>
					<path class="st0" d="M83.2,27c-1.3,1.6-3.7,2.9-5.3,2.9h-6.1l1.4-1.6h5.3c0.7,0,1.7-0.5,2.2-1.2l2.4-2.8
						c0.6-0.7,0.5-1.2-0.2-1.2h-2.4c-1.6,0-1.8-1.3-0.4-2.9l3.1-3.7c1.2-1.4,3.7-2.9,5.3-2.9h6.1l-1.4,1.6h-5.3
						c-0.7,0-1.7,0.6-2.2,1.2l-2.4,2.9c-0.6,0.7-0.5,1.2,0.2,1.2h2.4c1.6,0,1.8,1.2,0.5,2.8L83.2,27z"/>
					<path class="st0" d="M102,19.7c-1.3,1.6-3.7,2.9-5.3,2.9h-4.5l-6.2,7.3h-2.4l13.7-16.3h6.9c1.6,0,1.8,1.3,0.4,2.9L102,19.7z
						 M102.3,16.4c0.6-0.7,0.5-1.2-0.2-1.2h-3.7l-4.8,5.7h3.7c0.7,0,1.7-0.5,2.2-1.2L102.3,16.4z"/>
					<path class="st0" d="M104.4,29.8h-5.7c-1.6,0-1.8-1.3-0.4-2.9l8.9-10.6c1.3-1.6,3.7-2.9,5.2-2.9h5.7l-1.4,1.6h-4.9
						c-0.7,0-1.7,0.6-2.2,1.2l-3.8,4.5h5.7l-1.4,1.6h-5.7l-3.8,4.5c-0.6,0.7-0.5,1.2,0.2,1.2h4.9L104.4,29.8z"/>
					<path class="st0" d="M115.8,29.8h-5.7c-1.6,0-1.8-1.3-0.4-2.9l8.9-10.6c1.3-1.6,3.7-2.9,5.2-2.9h5.7l-1.4,1.6h-4.9
						c-0.7,0-1.7,0.6-2.2,1.2l-3.8,4.5h5.7l-1.4,1.6h-5.7l-3.8,4.5c-0.6,0.7-0.5,1.2,0.2,1.2h4.9L115.8,29.8z"/>
					<path class="st0" d="M130.8,27c-1.3,1.6-3.7,2.9-5.3,2.9h-6.9l13.7-16.3h6.9c1.6,0,1.8,1.3,0.4,2.9L130.8,27z M137.3,16.4
						c0.6-0.7,0.5-1.2-0.2-1.2h-3.7l-11,13h3.7c0.7,0,1.7-0.5,2.2-1.2L137.3,16.4z"/>
					<path class="st0" d="M158.2,15.2h-4.9c-0.7,0-1.7,0.6-2.2,1.2l-3.8,4.5h5.7l-1.4,1.6h-5.7l-6.2,7.3h-2.4l11.3-13.4
						c1.3-1.6,3.7-2.9,5.2-2.9h5.7L158.2,15.2z"/>
					<path class="st0" d="M158,29.8h-2.4l6.2-7.3h-4.9l-6.2,7.3h-2.4l11.3-13.4c1.3-1.6,3.7-2.9,5.2-2.9h4.1c1.6,0,1.8,1.3,0.4,2.9
						L158,29.8z M163.1,20.9l3.8-4.5c0.6-0.7,0.5-1.2-0.2-1.2h-2.4c-0.7,0-1.7,0.6-2.2,1.2l-3.8,4.5H163.1z"/>
					<path class="st0" d="M169.8,29.8h-5.7c-1.6,0-1.8-1.3-0.4-2.9l8.9-10.6c1.3-1.6,3.7-2.9,5.2-2.9h5.7l-1.4,1.6h-4.9
						c-0.7,0-1.7,0.6-2.2,1.2L166.1,27c-0.6,0.7-0.5,1.2,0.2,1.2h4.9L169.8,29.8z"/>
					<path class="st0" d="M193.9,15.2h-4.1l-12.3,14.6h-2.4l12.3-14.6h-4l1.4-1.6h10.6L193.9,15.2z"/>
					<path class="st0" d="M195.8,27c-1.3,1.6-3.7,2.9-5.3,2.9h-4.1c-1.6,0-1.8-1.3-0.4-2.9l8.9-10.6c1.3-1.6,3.7-2.9,5.2-2.9h4.1
						c1.6,0,1.8,1.3,0.4,2.9L195.8,27z M202.2,16.4c0.6-0.7,0.5-1.2-0.2-1.2h-2.4c-0.7,0-1.7,0.6-2.2,1.2L188.4,27
						c-0.6,0.7-0.5,1.2,0.2,1.2h2.4c0.7,0,1.7-0.5,2.2-1.2L202.2,16.4z"/>
					<path class="st0" d="M206.7,29.8h-2.7l2.9-7.3h-1.8l-6.2,7.3h-2.4l13.7-16.3h6.9c1.6,0,1.8,1.3,0.4,2.9l-2.7,3.2
						c-1.3,1.6-3.7,2.9-5.3,2.9L206.7,29.8z M215.2,16.4c0.6-0.7,0.5-1.2-0.2-1.2h-3.7l-4.8,5.7h3.7c0.7,0,1.7-0.5,2.2-1.2
						L215.2,16.4z"/>
					<path class="st0" d="M220.1,27c-1.3,1.6-3.7,2.9-5.2,2.9h-6.5l1.4-1.6h5.7c0.7,0,1.7-0.5,2.2-1.2l3.8-4.5h-4
						c-1.6,0-1.8-1.3-0.4-2.9l5.1-6.1h2.4l-5.1,6.1c-0.6,0.7-0.5,1.2,0.2,1.2h3.2l6.2-7.3h2.4L220.1,27z"/>
					<path class="st0" d="M238.8,27c-1.3,1.6-3.7,2.9-5.3,2.9h-6.9l13.7-16.3h6.9c1.6,0,1.8,1.3,0.4,2.9L238.8,27z M245.3,16.4
						c0.6-0.7,0.5-1.2-0.2-1.2h-3.7l-11,13h3.7c0.7,0,1.7-0.5,2.2-1.2L245.3,16.4z"/>
					<path class="st0" d="M248.2,29.8h-5.7c-1.6,0-1.8-1.3-0.4-2.9l8.9-10.6c1.3-1.6,3.7-2.9,5.2-2.9h5.7l-1.4,1.6h-4.9
						c-0.7,0-1.7,0.6-2.2,1.2l-3.8,4.5h5.7l-1.4,1.6h-5.7l-3.8,4.5c-0.6,0.7-0.5,1.2,0.2,1.2h4.9L248.2,29.8z"/>
					<path class="st0" d="M261.9,27c-1.3,1.6-3.7,2.9-5.3,2.9h-6.1l1.4-1.6h5.3c0.7,0,1.7-0.5,2.2-1.2l2.4-2.8
						c0.6-0.7,0.5-1.2-0.2-1.2h-2.4c-1.6,0-1.8-1.3-0.4-2.9l3.1-3.7c1.2-1.4,3.7-2.9,5.3-2.9h6.1l-1.4,1.6h-5.3
						c-0.7,0-1.7,0.6-2.2,1.2l-2.4,2.9c-0.6,0.7-0.5,1.2,0.2,1.2h2.4c1.6,0,1.8,1.2,0.5,2.8L261.9,27z"/>
					<path class="st0" d="M268.1,29.8h-6.5l1.4-1.6h2l11-13h-2l1.4-1.6h6.5l-1.4,1.6h-2l-11,13h2L268.1,29.8z"/>
					<path class="st0" d="M282.2,27c-1.3,1.6-3.7,2.9-5.3,2.9h-3.7c-1.6,0-1.8-1.3-0.4-2.9l8.9-10.6c1.3-1.6,3.7-2.9,5.2-2.9h5.7
						l-1.4,1.6h-4.9c-0.7,0-1.7,0.6-2.2,1.2L275.3,27c-0.6,0.7-0.5,1.2,0.2,1.2h2c0.7,0,1.7-0.5,2.2-1.2l3.8-4.5h-2l1.4-1.6h4.5
						L282.2,27z"/>
					<path class="st0" d="M292.4,29.8H290l11.3-13.4c0.6-0.7,0.5-1.2-0.2-1.2h-2.4c-0.7,0-1.7,0.6-2.2,1.2l-11.3,13.4h-2.4L294,16.4
						c1.3-1.6,3.7-2.9,5.2-2.9h4.1c1.6,0,1.8,1.3,0.4,2.9L292.4,29.8z"/>
					<path class="st0" d="M306.6,27c-1.3,1.6-3.7,2.9-5.3,2.9h-6.1l1.4-1.6h5.3c0.7,0,1.7-0.5,2.2-1.2l2.4-2.8
						c0.6-0.7,0.5-1.2-0.2-1.2h-2.4c-1.6,0-1.8-1.3-0.4-2.9l3.1-3.7c1.2-1.4,3.7-2.9,5.3-2.9h6.1l-1.4,1.6h-5.3
						c-0.7,0-1.7,0.6-2.2,1.2l-2.4,2.9c-0.6,0.7-0.5,1.2,0.2,1.2h2.4c1.6,0,1.8,1.2,0.5,2.8L306.6,27z"/>
				</g>
				<g>
					<path d="M81.3,26.7c-1.3,1.6-3.7,2.9-5.3,2.9h-6.1l1.4-1.6h5.3c0.7,0,1.7-0.5,2.2-1.2l2.4-2.8c0.6-0.7,0.5-1.2-0.2-1.2h-2.4
						c-1.6,0-1.8-1.3-0.4-2.9l3.1-3.7c1.2-1.4,3.7-2.9,5.3-2.9h6.1L91.2,15h-5.3c-0.7,0-1.7,0.6-2.2,1.2L81.3,19
						c-0.6,0.7-0.5,1.2,0.2,1.2h2.4c1.6,0,1.8,1.2,0.5,2.8L81.3,26.7z"/>
					<path d="M100,19.4c-1.3,1.6-3.7,2.9-5.3,2.9h-4.5l-6.2,7.3h-2.4l13.7-16.3h6.9c1.6,0,1.8,1.3,0.4,2.9L100,19.4z M100.3,16.2
						c0.6-0.7,0.5-1.2-0.2-1.2h-3.7l-4.8,5.7h3.7c0.7,0,1.7-0.5,2.2-1.2L100.3,16.2z"/>
					<path d="M102.4,29.6h-5.7c-1.6,0-1.8-1.3-0.4-2.9l8.9-10.6c1.3-1.6,3.7-2.9,5.2-2.9h5.7l-1.4,1.6h-4.9c-0.7,0-1.7,0.6-2.2,1.2
						l-3.8,4.5h5.7l-1.4,1.6h-5.7l-3.8,4.5c-0.6,0.7-0.5,1.2,0.2,1.2h4.9L102.4,29.6z"/>
					<path d="M113.8,29.6h-5.7c-1.6,0-1.8-1.3-0.4-2.9l8.9-10.6c1.3-1.6,3.7-2.9,5.2-2.9h5.7l-1.4,1.6h-4.9c-0.7,0-1.7,0.6-2.2,1.2
						l-3.8,4.5h5.7l-1.4,1.6h-5.7l-3.8,4.5c-0.6,0.7-0.5,1.2,0.2,1.2h4.9L113.8,29.6z"/>
					<path d="M128.8,26.7c-1.3,1.6-3.7,2.9-5.3,2.9h-6.9l13.7-16.3h6.9c1.6,0,1.8,1.3,0.4,2.9L128.8,26.7z M135.3,16.2
						c0.6-0.7,0.5-1.2-0.2-1.2h-3.7l-11,13h3.7c0.7,0,1.7-0.5,2.2-1.2L135.3,16.2z"/>
					<path d="M156.2,15h-4.9c-0.7,0-1.7,0.6-2.2,1.2l-3.8,4.5h5.7l-1.4,1.6h-5.7l-6.2,7.3h-2.4l11.3-13.4c1.3-1.6,3.7-2.9,5.2-2.9
						h5.7L156.2,15z"/>
					<path d="M156,29.6h-2.4l6.2-7.3h-4.9l-6.2,7.3h-2.4l11.3-13.4c1.3-1.6,3.7-2.9,5.2-2.9h4.1c1.6,0,1.8,1.3,0.4,2.9L156,29.6z
						 M161.2,20.7l3.8-4.5c0.6-0.7,0.5-1.2-0.2-1.2h-2.4c-0.7,0-1.7,0.6-2.2,1.2l-3.8,4.5H161.2z"/>
					<path d="M167.8,29.6h-5.7c-1.6,0-1.8-1.3-0.4-2.9l8.9-10.6c1.3-1.6,3.7-2.9,5.2-2.9h5.7l-1.4,1.6h-4.9c-0.7,0-1.7,0.6-2.2,1.2
						l-8.9,10.6c-0.6,0.7-0.5,1.2,0.2,1.2h4.9L167.8,29.6z"/>
					<path d="M191.9,15h-4.1l-12.3,14.6h-2.4L185.4,15h-4l1.4-1.6h10.6L191.9,15z"/>
					<path d="M193.8,26.7c-1.3,1.6-3.7,2.9-5.3,2.9h-4.1c-1.6,0-1.8-1.3-0.4-2.9l8.9-10.6c1.3-1.6,3.7-2.9,5.2-2.9h4.1
						c1.6,0,1.8,1.3,0.4,2.9L193.8,26.7z M200.2,16.2c0.6-0.7,0.5-1.2-0.2-1.2h-2.4c-0.7,0-1.7,0.6-2.2,1.2l-8.9,10.6
						c-0.6,0.7-0.5,1.2,0.2,1.2h2.4c0.7,0,1.7-0.5,2.2-1.2L200.2,16.2z"/>
					<path d="M204.8,29.6h-2.7l2.9-7.3h-1.8l-6.2,7.3h-2.4l13.7-16.3h6.9c1.6,0,1.8,1.3,0.4,2.9l-2.7,3.2c-1.3,1.6-3.7,2.9-5.3,2.9
						L204.8,29.6z M213.2,16.2c0.6-0.7,0.5-1.2-0.2-1.2h-3.7l-4.8,5.7h3.7c0.7,0,1.7-0.5,2.2-1.2L213.2,16.2z"/>
					<path d="M218.1,26.7c-1.3,1.6-3.7,2.9-5.2,2.9h-6.5l1.4-1.6h5.7c0.7,0,1.7-0.5,2.2-1.2l3.8-4.5h-4c-1.6,0-1.8-1.3-0.4-2.9
						l5.1-6.1h2.4l-5.1,6.1c-0.6,0.7-0.5,1.2,0.2,1.2h3.2l6.2-7.3h2.4L218.1,26.7z"/>
					<path d="M236.8,26.7c-1.3,1.6-3.7,2.9-5.3,2.9h-6.9l13.7-16.3h6.9c1.6,0,1.8,1.3,0.4,2.9L236.8,26.7z M243.3,16.2
						c0.6-0.7,0.5-1.2-0.2-1.2h-3.7l-11,13h3.7c0.7,0,1.7-0.5,2.2-1.2L243.3,16.2z"/>
					<path d="M246.2,29.6h-5.7c-1.6,0-1.8-1.3-0.4-2.9l8.9-10.6c1.3-1.6,3.7-2.9,5.2-2.9h5.7l-1.4,1.6h-4.9c-0.7,0-1.7,0.6-2.2,1.2
						l-3.8,4.5h5.7l-1.4,1.6h-5.7l-3.8,4.5c-0.6,0.7-0.5,1.2,0.2,1.2h4.9L246.2,29.6z"/>
					<path d="M260,26.7c-1.3,1.6-3.7,2.9-5.3,2.9h-6.1L250,28h5.3c0.7,0,1.7-0.5,2.2-1.2l2.4-2.8c0.6-0.7,0.5-1.2-0.2-1.2h-2.4
						c-1.6,0-1.8-1.3-0.4-2.9l3.1-3.7c1.2-1.4,3.7-2.9,5.3-2.9h6.1l-1.4,1.6h-5.3c-0.7,0-1.7,0.6-2.2,1.2L260,19
						c-0.6,0.7-0.5,1.2,0.2,1.2h2.4c1.6,0,1.8,1.2,0.5,2.8L260,26.7z"/>
					<path d="M266.1,29.6h-6.5L261,28h2l11-13h-2l1.4-1.6h6.5l-1.4,1.6h-2l-11,13h2L266.1,29.6z"/>
					<path d="M280.3,26.7c-1.3,1.6-3.7,2.9-5.3,2.9h-3.7c-1.6,0-1.8-1.3-0.4-2.9l8.9-10.6c1.3-1.6,3.7-2.9,5.2-2.9h5.7l-1.4,1.6
						h-4.9c-0.7,0-1.7,0.6-2.2,1.2l-8.9,10.6c-0.6,0.7-0.5,1.2,0.2,1.2h2c0.7,0,1.7-0.5,2.2-1.2l3.8-4.5h-2l1.4-1.6h4.5L280.3,26.7z
						"/>
					<path d="M290.5,29.6H288l11.3-13.4c0.6-0.7,0.5-1.2-0.2-1.2h-2.4c-0.7,0-1.7,0.6-2.2,1.2l-11.3,13.4h-2.4L292,16.2
						c1.3-1.6,3.7-2.9,5.2-2.9h4.1c1.6,0,1.8,1.3,0.4,2.9L290.5,29.6z"/>
					<path d="M304.6,26.7c-1.3,1.6-3.7,2.9-5.3,2.9h-6.1l1.4-1.6h5.3c0.7,0,1.7-0.5,2.2-1.2l2.4-2.8c0.6-0.7,0.5-1.2-0.2-1.2H302
						c-1.6,0-1.8-1.3-0.4-2.9l3.1-3.7c1.2-1.4,3.7-2.9,5.3-2.9h6.1l-1.4,1.6h-5.3c-0.7,0-1.7,0.6-2.2,1.2l-2.4,2.9
						c-0.6,0.7-0.5,1.2,0.2,1.2h2.4c1.6,0,1.8,1.2,0.5,2.8L304.6,26.7z"/>
				</g>
			</g>
		</g>
	</g>
</g>
</svg>
