<svg xmlns="http://www.w3.org/2000/svg" viewBox="0 0 271.5 138.35"><defs><style>.cls-1{fill:#fff;}</style></defs><title>Asset 1</title><g id="Layer_2" data-name="Layer 2"><g id="Layer_1-2" data-name="Layer 1"><g id="Layer_2-2" data-name="Layer 2"><polygon class="cls-1" points="260.3 138.35 0 138.35 11.1 122.95 271.5 122.95 260.3 138.35"/><path class="cls-1" d="M26.9,132.15a8.12,8.12,0,0,1-5.3,2.9H15.5l1.4-1.6h5.3a3.07,3.07,0,0,0,2.2-1.2l2.4-2.8c.6-.7.5-1.2-.2-1.2H24.2c-1.6,0-1.8-1.3-.4-2.9l3.1-3.7c1.2-1.4,3.7-2.9,5.3-2.9h6.1l-1.4,1.6H31.6a3.48,3.48,0,0,0-2.2,1.2l-2.4,2.9c-.6.7-.5,1.2.2,1.2h2.4c1.6,0,1.8,1.2.5,2.8Z"/><path class="cls-1" d="M45.7,124.85a8.12,8.12,0,0,1-5.3,2.9H35.9l-6.2,7.3H27.3L41,118.75h6.9c1.6,0,1.8,1.3.4,2.9Zm.3-3.2c.6-.7.5-1.2-.2-1.2H42.1l-4.8,5.7H41a3.07,3.07,0,0,0,2.2-1.2Z"/><path class="cls-1" d="M48.1,135.05H42.4c-1.6,0-1.8-1.3-.4-2.9l8.9-10.6a8.14,8.14,0,0,1,5.2-2.9h5.7l-1.4,1.6H55.5a3.48,3.48,0,0,0-2.2,1.2L49.5,126h5.7l-1.4,1.6H48.1l-3.8,4.5c-.6.7-.5,1.2.2,1.2h4.9Z"/><path class="cls-1" d="M59.4,135.05H53.7c-1.6,0-1.8-1.3-.4-2.9l8.9-10.6a8.14,8.14,0,0,1,5.2-2.9h5.7l-1.4,1.6H66.8a3.48,3.48,0,0,0-2.2,1.2L60.8,126h5.7l-1.4,1.6H59.4l-3.8,4.5c-.6.7-.5,1.2.2,1.2h4.9Z"/><path class="cls-1" d="M74.4,132.15a8.12,8.12,0,0,1-5.3,2.9H62.2L76,118.75h6.9c1.6,0,1.8,1.3.4,2.9Zm6.5-10.5c.6-.7.5-1.2-.2-1.2H77l-11,13h3.7a3.07,3.07,0,0,0,2.2-1.2Z"/><path class="cls-1" d="M101.8,120.45H96.9a3.48,3.48,0,0,0-2.2,1.2l-3.8,4.5h5.7l-1.4,1.6H89.5l-6.2,7.3H80.9l11.3-13.4a8.14,8.14,0,0,1,5.2-2.9h5.7Z"/><path class="cls-1" d="M101.7,135.05H99.3l6.2-7.3h-4.9l-6.2,7.3H92l11.3-13.4a8.14,8.14,0,0,1,5.2-2.9h4.1c1.6,0,1.8,1.3.4,2.9Zm5.1-9,3.8-4.5c.6-.7.5-1.2-.2-1.2H108a3.48,3.48,0,0,0-2.2,1.2l-3.8,4.5Z"/><path class="cls-1" d="M113.4,135.05h-5.7c-1.6,0-1.8-1.3-.4-2.9l8.9-10.6a8.14,8.14,0,0,1,5.2-2.9h5.7l-1.4,1.6h-4.9a3.48,3.48,0,0,0-2.2,1.2l-8.9,10.6c-.6.7-.5,1.2.2,1.2h4.9Z"/><path class="cls-1" d="M137.5,120.45h-4.1l-12.3,14.6h-2.4l12.3-14.6h-4l1.4-1.6H139Z"/><path class="cls-1" d="M139.4,132.15a8.12,8.12,0,0,1-5.3,2.9H130c-1.6,0-1.8-1.3-.4-2.9l8.9-10.6a8.14,8.14,0,0,1,5.2-2.9h4.1c1.6,0,1.8,1.3.4,2.9Zm6.5-10.5c.6-.7.5-1.2-.2-1.2h-2.4a3.48,3.48,0,0,0-2.2,1.2l-8.9,10.6c-.6.7-.5,1.2.2,1.2h2.4a3.07,3.07,0,0,0,2.2-1.2Z"/><path class="cls-1" d="M150.4,135.05h-2.7l2.9-7.3h-1.8l-6.2,7.3h-2.4l13.7-16.3h6.9c1.6,0,1.8,1.3.4,2.9l-2.7,3.2a8.12,8.12,0,0,1-5.3,2.9Zm8.5-13.4c.6-.7.5-1.2-.2-1.2H155l-4.8,5.7h3.7a3.07,3.07,0,0,0,2.2-1.2Z"/><path class="cls-1" d="M163.7,132.15a8.14,8.14,0,0,1-5.2,2.9H152l1.4-1.6h5.7a3.07,3.07,0,0,0,2.2-1.2l3.8-4.5h-4c-1.6,0-1.8-1.3-.4-2.9l5.1-6.1h2.4l-5.1,6.1c-.6.7-.5,1.2.2,1.2h3.2l6.2-7.3h2.4Z"/><path class="cls-1" d="M182.4,132.15a8.12,8.12,0,0,1-5.3,2.9h-6.9l13.7-16.3h6.9c1.6,0,1.8,1.3.4,2.9Zm6.5-10.5c.6-.7.5-1.2-.2-1.2H185l-11,13h3.7a3.07,3.07,0,0,0,2.2-1.2Z"/><path class="cls-1" d="M191.8,135.05h-5.7c-1.6,0-1.8-1.3-.4-2.9l8.9-10.6a8.14,8.14,0,0,1,5.2-2.9h5.7l-1.4,1.6h-4.9a3.48,3.48,0,0,0-2.2,1.2l-3.8,4.5h5.7l-1.4,1.6h-5.7l-3.8,4.5c-.6.7-.5,1.2.2,1.2h4.9Z"/><path class="cls-1" d="M205.6,132.15a8.12,8.12,0,0,1-5.3,2.9h-6.1l1.4-1.6h5.3a3.07,3.07,0,0,0,2.2-1.2l2.4-2.8c.6-.7.5-1.2-.2-1.2h-2.4c-1.6,0-1.8-1.3-.4-2.9l3.1-3.7c1.2-1.4,3.7-2.9,5.3-2.9H217l-1.4,1.6h-5.3a3.48,3.48,0,0,0-2.2,1.2l-2.4,2.9c-.6.7-.5,1.2.2,1.2h2.4c1.6,0,1.8,1.2.5,2.8Z"/><path class="cls-1" d="M211.7,135.05h-6.5l1.4-1.6h2l11-13h-2l1.4-1.6h6.5l-1.4,1.6h-2l-11,13h2Z"/><path class="cls-1" d="M225.9,132.15a8.12,8.12,0,0,1-5.3,2.9h-3.7c-1.6,0-1.8-1.3-.4-2.9l8.9-10.6a8.14,8.14,0,0,1,5.2-2.9h5.7l-1.4,1.6H230a3.48,3.48,0,0,0-2.2,1.2l-8.9,10.6c-.6.7-.5,1.2.2,1.2h2a3.07,3.07,0,0,0,2.2-1.2l3.8-4.5h-2l1.4-1.6H231Z"/><path class="cls-1" d="M236.1,135.05h-2.4l11.3-13.4c.6-.7.5-1.2-.2-1.2h-2.4a3.48,3.48,0,0,0-2.2,1.2l-11.3,13.4h-2.4l11.3-13.4a8.14,8.14,0,0,1,5.2-2.9h4.1c1.6,0,1.8,1.3.4,2.9Z"/><path class="cls-1" d="M250.3,132.15a8.12,8.12,0,0,1-5.3,2.9h-6.1l1.4-1.6h5.3a3.07,3.07,0,0,0,2.2-1.2l2.4-2.8c.6-.7.5-1.2-.2-1.2h-2.4c-1.6,0-1.8-1.3-.4-2.9l3.1-3.7c1.2-1.4,3.7-2.9,5.3-2.9h6.1l-1.4,1.6H255a3.48,3.48,0,0,0-2.2,1.2l-2.4,2.9c-.6.7-.5,1.2.2,1.2H253c1.6,0,1.8,1.2.5,2.8Z"/><path d="M24.9,132a8.12,8.12,0,0,1-5.3,2.9H13.5l1.4-1.6h5.3a3.07,3.07,0,0,0,2.2-1.2l2.4-2.8c.6-.7.5-1.2-.2-1.2H22.2c-1.6,0-1.8-1.3-.4-2.9l3.1-3.7c1.2-1.4,3.7-2.9,5.3-2.9h6.1l-1.4,1.6H29.6a3.48,3.48,0,0,0-2.2,1.2l-2.4,2.9c-.6.7-.5,1.2.2,1.2h2.4c1.6,0,1.8,1.2.5,2.8Z"/><path d="M43.7,124.65a8.12,8.12,0,0,1-5.3,2.9H33.9l-6.2,7.3H25.3L39,118.55h6.9c1.6,0,1.8,1.3.4,2.9Zm.3-3.2c.6-.7.5-1.2-.2-1.2H40.1L35.3,126H39a3.07,3.07,0,0,0,2.2-1.2Z"/><path d="M46.1,134.85H40.4c-1.6,0-1.8-1.3-.4-2.9l8.9-10.6a8.14,8.14,0,0,1,5.2-2.9h5.7l-1.4,1.6H53.5a3.48,3.48,0,0,0-2.2,1.2l-3.8,4.5h5.7l-1.4,1.6H46.1l-3.8,4.5c-.6.7-.5,1.2.2,1.2h4.9Z"/><path d="M57.5,134.85H51.8c-1.6,0-1.8-1.3-.4-2.9l8.9-10.6a8.14,8.14,0,0,1,5.2-2.9h5.7l-1.4,1.6H64.9a3.48,3.48,0,0,0-2.2,1.2l-3.8,4.5h5.7l-1.4,1.6H57.5l-3.8,4.5c-.6.7-.5,1.2.2,1.2h4.9Z"/><path d="M72.5,132a8.12,8.12,0,0,1-5.3,2.9H60.3L74,118.55h6.9c1.6,0,1.8,1.3.4,2.9Zm6.4-10.5c.6-.7.5-1.2-.2-1.2H75l-11,13h3.7a3.07,3.07,0,0,0,2.2-1.2Z"/><path d="M99.8,120.15H94.9a3.48,3.48,0,0,0-2.2,1.2l-3.8,4.5h5.7l-1.4,1.6H87.5l-6.2,7.3H78.9l11.3-13.4a8.14,8.14,0,0,1,5.2-2.9h5.7Z"/><path d="M99.7,134.85H97.3l6.2-7.3H98.6l-6.2,7.3H90l11.3-13.4a8.14,8.14,0,0,1,5.2-2.9h4.1c1.6,0,1.8,1.3.4,2.9Zm5.1-9,3.8-4.5c.6-.7.5-1.2-.2-1.2H106a3.48,3.48,0,0,0-2.2,1.2l-3.8,4.5Z"/><path d="M111.5,134.85h-5.7c-1.6,0-1.8-1.3-.4-2.9l8.9-10.6a8.14,8.14,0,0,1,5.2-2.9h5.7l-1.4,1.6h-4.9a3.48,3.48,0,0,0-2.2,1.2l-8.9,10.6c-.6.7-.5,1.2.2,1.2h4.9Z"/><path d="M135.6,120.15h-4.1l-12.3,14.6h-2.5l12.3-14.6h-4l1.4-1.6H137Z"/><path d="M137.4,132a8.12,8.12,0,0,1-5.3,2.9H128c-1.6,0-1.8-1.3-.4-2.9l8.9-10.6a8.14,8.14,0,0,1,5.2-2.9h4.1c1.6,0,1.8,1.3.4,2.9Zm6.5-10.5c.6-.7.5-1.2-.2-1.2h-2.4a3.48,3.48,0,0,0-2.2,1.2l-8.9,10.6c-.6.7-.5,1.2.2,1.2h2.4a3.07,3.07,0,0,0,2.2-1.2Z"/><path d="M148.4,134.85h-2.7l2.9-7.3h-1.8l-6.2,7.3h-2.4l13.7-16.3h6.9c1.6,0,1.8,1.3.4,2.9l-2.7,3.2a8.12,8.12,0,0,1-5.3,2.9Zm8.5-13.4c.6-.7.5-1.2-.2-1.2H153l-4.8,5.7h3.7a3.07,3.07,0,0,0,2.2-1.2Z"/><path d="M161.8,132a8.14,8.14,0,0,1-5.2,2.9h-6.5l1.4-1.6h5.7a3.07,3.07,0,0,0,2.2-1.2l3.8-4.5h-4c-1.6,0-1.8-1.3-.4-2.9l5.1-6.1h2.4l-5.1,6.1c-.6.7-.5,1.2.2,1.2h3.2l6.2-7.3h2.4Z"/><path d="M180.5,132a8.12,8.12,0,0,1-5.3,2.9h-6.9l13.7-16.3h6.9c1.6,0,1.8,1.3.4,2.9Zm6.4-10.5c.6-.7.5-1.2-.2-1.2H183l-11,13h3.7a3.07,3.07,0,0,0,2.2-1.2Z"/><path d="M189.8,134.85h-5.7c-1.6,0-1.8-1.3-.4-2.9l8.9-10.6a8.14,8.14,0,0,1,5.2-2.9h5.7l-1.4,1.6h-4.9a3.48,3.48,0,0,0-2.2,1.2l-3.8,4.5h5.7l-1.4,1.6h-5.7l-3.8,4.5c-.6.7-.5,1.2.2,1.2h4.9Z"/><path d="M203.6,132a8.12,8.12,0,0,1-5.3,2.9h-6.1l1.4-1.6h5.3a3.07,3.07,0,0,0,2.2-1.2l2.4-2.8c.6-.7.5-1.2-.2-1.2h-2.4c-1.6,0-1.8-1.3-.4-2.9l3.1-3.7c1.2-1.4,3.7-2.9,5.3-2.9H215l-1.4,1.6h-5.3a3.48,3.48,0,0,0-2.2,1.2l-2.4,2.9c-.6.7-.5,1.2.2,1.2h2.4c1.6,0,1.8,1.2.5,2.8Z"/><path d="M209.7,134.85h-6.5l1.4-1.6h2l11-13h-2l1.4-1.6h6.5l-1.4,1.6h-2l-11,13h2Z"/><path d="M223.9,132a8.12,8.12,0,0,1-5.3,2.9h-3.7c-1.6,0-1.8-1.3-.4-2.9l8.9-10.6a8.14,8.14,0,0,1,5.2-2.9h5.7l-1.4,1.6H228a3.48,3.48,0,0,0-2.2,1.2l-8.9,10.6c-.6.7-.5,1.2.2,1.2h2a3.07,3.07,0,0,0,2.2-1.2l3.8-4.5h-2l1.4-1.6H229Z"/><path d="M234.1,134.85h-2.4l11.3-13.4c.6-.7.5-1.2-.2-1.2h-2.4a3.48,3.48,0,0,0-2.2,1.2l-11.3,13.4h-2.4l11.3-13.4a8.14,8.14,0,0,1,5.2-2.9h4.1c1.6,0,1.8,1.3.4,2.9Z"/><path d="M248.3,132a8.12,8.12,0,0,1-5.3,2.9h-6.1l1.4-1.6h5.3a3.07,3.07,0,0,0,2.2-1.2l2.4-2.8c.6-.7.5-1.2-.2-1.2h-2.4c-1.6,0-1.8-1.3-.4-2.9l3.1-3.7c1.2-1.4,3.7-2.9,5.3-2.9h6.1l-1.4,1.6H253a3.48,3.48,0,0,0-2.2,1.2l-2.4,2.9c-.6.7-.5,1.2.2,1.2H251c1.6,0,1.8,1.2.5,2.8Z"/><path class="cls-1" d="M155.2,54.45s7.8-3.2,10.2-8.8c0,0,14.8,2.1,25.1,0,0,0-5.4,7.3-19.8,9.5,0,0-2.6,12.3-1,24,0,0-3.5,13.3,7.8,15.3l-13,1.6s-2.4-4,1.3-11.1c0,0-2.6-10.9-1-29.4C164.9,55.55,161.8,55.85,155.2,54.45Z"/><path class="cls-1" d="M189.2,49.65s-5,5.7-14.7,6.9c0,0-3.7,10.5-.8,21.3,0,0,8.4-5.4,11.4,6.4l7.3-7.1C192.3,77.15,199.8,70.55,189.2,49.65Zm0,15.5c-2.8-2.1-7.8,6.6-7.8,6.6-2-6.1-.6-8.5-.6-8.5.9-1.5,7.8-6.2,7.8-6.2S192,67.25,189.2,65.15Z"/><path class="cls-1" d="M207.3,71.05l4.5-1.2s5.9-12.1,2.7-19h0l-.1-.1a7.48,7.48,0,0,0-2.6-3c-2.8-2.2-7.9-4.3-17-2,0,0,.9,1.4-2.8,3.4,0,0,6.9,12.7,4.8,26.5,0,0,2.2-3,4.1-2.2s.3,10.6,21.7,12.6Zm-2.7-17.2c8.4-7.3,6.9,3.9,6.9,3.9a8.59,8.59,0,0,0-5.9,5.9C206.8,56.55,204.6,53.85,204.6,53.85Z"/><circle class="cls-1" cx="177.1" cy="85.25" r="6.1"/><path class="cls-1" d="M76.4,87.65s-18,6.7-15.8,10.9c0,0,33.4,2.4,38.1-10.9,0,0-15.1,8.5-21.7,5.5,0,0,21.6-23.4,22.7-28.4"/><path class="cls-1" d="M105.9,78.55a6.6,6.6,0,1,1-6.6-6.4A6.49,6.49,0,0,1,105.9,78.55Z"/><path class="cls-1" d="M160.9,88.55a14.57,14.57,0,0,0-10.8,8.2l1.8.7-.3-1s7.3,1.3,11.6-.3C163.2,96.15,158.1,93.65,160.9,88.55Z"/><path class="cls-1" d="M150.9,77.65c.2,2-.1,4.2-1.7,5.5-3.7,2.9-11.8,3.1-11.8,3.1s9.6-17.6,11.6-30.8c0,0,11.8-4,13.9-9.7,0,0-11,3.6-15.6.4,0,0-6.6,38.7-17.6,40.3,0,0-8.3,4.9-2.3,6.2,0,0,14.9-3.5,21.3-4.1,4.3-.4,6.8-6.1,6.6-11.2Z"/><path class="cls-1" d="M160.2,20.55a43.25,43.25,0,0,1,5.2-5.3c-8.7-.2-12.5-2-12.5-2,.4,2.2-2.6,7.5-2.6,7.5C157.4,16.65,159.6,19.15,160.2,20.55Z"/><path class="cls-1" d="M158.5,24.55a70.45,70.45,0,0,1-11-1.4s5.4-7.1,3.8-12.8l-6.2-5.3s.4,15.8-14.5,23.2c0,0,11.2-.2,24.5.6A32.09,32.09,0,0,1,158.5,24.55Z"/><polyline class="cls-1" points="107.2 12.85 99.7 29.75 99.6 19.05"/><path class="cls-1" d="M158.4,29s16.1-22.6,31.3-21.3c0,0-18.3,14.6-17.5,23A74.9,74.9,0,0,0,158.4,29Z"/><path class="cls-1" d="M147,4.75l5.4,4.5s11.7-.8,20.2,1.2c0,0,9.2-7.3,15.7-4.2C188.2,6.35,172.7-4.95,147,4.75Z"/><path class="cls-1" d="M144.6,45.65c-10.9-5-24.6,3.6-24.6,3.6-3.1,3-10.6,4.8-10.6,4.8a50.4,50.4,0,0,0,9.6-.2h0l.4-.1c1.1-.1,1.8-.2,1.8-.2l9.5-1.2s-1.5,6.6-11.8,9.9-5.1,12.8-5.1,12.8l8.5-7.2,12.2,11.3C134.6,79.15,145.4,49.35,144.6,45.65Zm-9.2,16.4a6.85,6.85,0,0,1-7.9,0s6.2-3.6,7.9-9l6-2.3Z"/><path class="cls-1" d="M155.5,60.45v-.7l-3.1-2.4-4.2,6.5c1.9,0,5.1,0,9.7-.4A3.76,3.76,0,0,1,155.5,60.45Z"/><path class="cls-1" d="M162.7,62.85v0Z"/><path class="cls-1" d="M163,56.75a34.65,34.65,0,0,1-4.8-.2,4,4,0,0,0-.7,2.4,4.27,4.27,0,0,0,4.3,4.3,2,2,0,0,0,.8-.1C162.7,61.05,162.9,59,163,56.75Z"/><path class="cls-1" d="M178.1,22.65s-3.9,3.7-4,7.9c0,0,42.2,2.5,30.2-11.8C204.3,18.85,208.9,25.05,178.1,22.65Z"/><path class="cls-1" d="M190.5,8.35l-2.7,3.2s7.9,4.8,13.7,3.3Z"/><path class="cls-1" d="M142.7,5.15s-5.7,1.3-20.6-5h0s-2.4-.7-13,.9v.1s20.1,6.2.7,30.7c0,0,10.2-4,18.8-3.7L124.8,27l.5-1.4C125.3,25.45,142.8,25.35,142.7,5.15Zm-11.2,3.7c1.6,4.5,8.1-3.7,5.9,2.3-1.7,4.6-4.2,6.3-5.3,6.9l-3.7-2.3C131.9,12.25,131.5,8.85,131.5,8.85Z"/><path class="cls-1" d="M193.4,4.85c22.1,15.4,15.9,22.5,6.5,25.7h0c-8,2.2-17.5,2.3-24.2,2-2.8-.3-5.7-.5-8.6-.7h0c-30.3-2.4-61.7-2.9-66.2,12.3-8.4,28.6-24.5,43.5-24.5,43.5,17.4-9.1,23.3-22.9,23.3-22.9,22-4,27.6-10.6,27.6-10.6a81.83,81.83,0,0,1-23.9,3.2c5.2-24.9,45.3-17.8,45.3-17.8,55.5,8,73.9-3.9,76.5-5.9a3,3,0,0,0,.4-.3C217.3,12.35,193.4,4.85,193.4,4.85Zm16.8,27.4a10.2,10.2,0,0,0,2.4-9.6c1.7,4.7,4.2,1.6,6.9,4.2S210.2,32.25,210.2,32.25Z"/><path class="cls-1" d="M189.8,18.45a2.71,2.71,0,0,1,1.5-2.5l-6.1-.8s-4.3,2.1-5.3,5.6c0,0,5.8-2.3,11,.1A3.39,3.39,0,0,1,189.8,18.45Z"/><path class="cls-1" d="M113.2,6.65C101.5-5.45,84.3,11,84.3,11l1.7,6.1a7.56,7.56,0,0,0-7.3,7.4v.3c-19.5-8.3-1.8-6.8-1.8-6.8-22.7-15-12.8,7.7-2.6,16.6s24.9,4.6,24.9,4.6c-9.2-13.7,3.4-35.5,7.9-30.3s-7.5,25.7-7.5,25.7S124.9,18.75,113.2,6.65Z"/><path class="cls-1" d="M107.7,77.15a6.43,6.43,0,0,1-1.5,4.1l5.5-4.5c-4.2-4.5-1.8-11.3-1.8-11.3L104,67l-1.3,3.8A6.63,6.63,0,0,1,107.7,77.15Z"/><path class="cls-1" d="M91.7,81.65a40.64,40.64,0,0,1-9.6,9,76.6,76.6,0,0,0,14.1-4.6A6.44,6.44,0,0,1,91.7,81.65Z"/><path class="cls-1" d="M113.2,6.65C101.5-5.45,84.3,11,84.3,11l1.7,6.1a7.56,7.56,0,0,0-7.3,7.4v.3c-19.5-8.3-1.8-6.8-1.8-6.8-22.7-15-12.8,7.7-2.6,16.6s24.9,4.6,24.9,4.6c-9.2-13.7,3.4-35.5,7.9-30.3s-7.5,25.7-7.5,25.7S124.9,18.75,113.2,6.65Z"/><path class="cls-1" d="M231,61a167.11,167.11,0,0,1-4.2-20.9l-.7-3.5s-.4.6-4.1,2.6c2.2,8.2,1.4,23.2,1.4,23.2l.2.1-3,.6c0-.2.1-.5.1-.7.7-5.4-.1-15.1-.1-15.1a20.46,20.46,0,0,0,0-4.2c-.2-3.1-4,0-4,0-1.1.8-1.8,1.3-2.3,1.6v.2a7.81,7.81,0,0,1,3.1,5l.4,3.6c.1,3.5-.5,8.4-2.6,15.3l5.1-1a6.18,6.18,0,0,0-2.1,4.5c0,3.5,3.2,6.3,7.2,6.3a2.77,2.77,0,0,0,.9-.1c0,4.3-.9,9-4,12.6-.5-.8-.5-2,.6-3.6,0,0-7.4,1.5-10.8,7.3l1.8.4-.3-.7a42.38,42.38,0,0,0,5.4-.2C222.2,94.25,244.3,92.05,231,61Z"/><path class="cls-1" d="M68.7,32.35s-2.3-2.1-5.5-8.8c0,0-12.1-13.8-10.7,3.1,0,0-10.3,13.1-6.2,12.9a3.31,3.31,0,0,1-1,2c-.9.8,6.5-2.6,8.9-2s6.7-7.5,18.1-3.3A12.36,12.36,0,0,1,68.7,32.35Z"/><path class="cls-1" d="M45.9,60.05l-9.1-3.7.8-.6s-5.8-.6-.7-3.5a61.17,61.17,0,0,1,6.8-8.1s6.2-3.5,10.1-2.9,9.2-1.4,9.3-3.1,7.2-2.2,12,.4,10,6.8,24.3,3.2c0,0-3,9.8-5.9,11.1l-10,2.7s5.8-13-17.9-10.8-9.6,8.4-20,14.1Z"/><path class="cls-1" d="M81.8,54.45s-4.7,5.4-16.3,8.5c0,0-2.1-3.6-11.7,1.9,0,0-2,.1-5.4-2l-.2-3.2.8.5.2-1,1.1,1S52.9,48,64.5,47.45,79.3,47.75,81.8,54.45Z"/></g></g></g></svg>